<?xml version="1.0" encoding="UTF-8" standalone="no"?>
<svg width="108px" height="30px" viewBox="0 0 108 30" version="1.1" xmlns="http://www.w3.org/2000/svg" xmlns:xlink="http://www.w3.org/1999/xlink" xmlns:sketch="http://www.bohemiancoding.com/sketch/ns">
    <!-- Generator: Sketch 3.2.2 (9983) - http://www.bohemiancoding.com/sketch -->
    <title>klarna1</title>
    <desc>Created with Sketch.</desc>
    <defs></defs>
    <g id="Page-1" stroke="none" stroke-width="1" fill="none" fill-rule="evenodd" sketch:type="MSPage">
        <g id="Klarna" sketch:type="MSArtboardGroup" fill="#172F2D">
            <g id="klarna1" sketch:type="MSLayerGroup">
                <g id="Layer_1_copy_14_" sketch:type="MSShapeGroup">
                    <path d="M84.4884,15.3107143 C84.53376,19.4378571 84.50568,23.5607143 84.50568,27.6792857 C84.50568,28.6457143 84.3912,28.755 83.39544,28.755 C82.24416,28.7614286 81.08856,28.7614286 79.93512,28.755 C79.0344,28.755 78.93288,28.6585714 78.93288,27.7864286 C78.93288,23.7835714 78.94584,19.7828571 78.91992,15.7778571 C78.91992,15.1092857 78.82704,14.4385714 78.70392,13.7785714 C78.52896,12.825 77.87664,12.2828571 76.94568,12.1307143 C75.2544,11.8521429 73.73376,12.3835714 72.3168,13.2492857 C72.12888,13.365 72.05544,13.7828571 72.05544,14.0614286 C72.036,17.43 72.04248,20.7985714 72.04248,24.1671429 C72.04248,25.4357143 72.02736,26.7 72.04896,27.9642857 C72.05976,28.545 71.80272,28.7678571 71.23248,28.7614286 C69.95592,28.7378571 68.67936,28.755 67.4028,28.7507143 C66.66408,28.7464286 66.46104,28.5407143 66.46104,27.7928571 C66.45888,21.4221429 66.45888,15.0535714 66.46104,8.68285714 C66.46104,8.01214286 66.66408,7.80214286 67.34232,7.79785714 C68.4936,7.78714286 69.64272,7.78928571 70.80264,7.79571429 C71.53272,7.8 71.658,7.935 71.67528,8.655 C71.6796,8.93142857 71.70552,9.20357143 71.7228,9.64285714 C72.1008,9.405 72.32112,9.27214286 72.54144,9.12642857 C74.79,7.61357143 77.28696,7.245 79.90704,7.70571429 C82.3068,8.12142857 83.6136,9.71357143 84.0996,11.9742857 C84.34368,13.0692857 84.47544,14.1964286 84.4884,15.3107143 L84.4884,15.3107143 Z M107.36064,6.35785714 L107.09496,7.07142857 C107.03232,7.25785714 106.97616,7.41857143 106.93944,7.56857143 L106.93728,7.56857143 C106.89192,7.41428571 106.84656,7.25142857 106.78608,7.07142857 L106.53336,6.35785714 L106.28928,6.35785714 L106.18776,7.83214286 L106.3692,7.83214286 L106.4124,7.19785714 C106.42536,6.975 106.43616,6.72857143 106.44048,6.54642857 L106.4448,6.54642857 C106.49016,6.72 106.54632,6.91071429 106.61544,7.11857143 L106.85736,7.82357143 L107.00208,7.82357143 L107.26344,7.10571429 C107.33904,6.90214286 107.39736,6.71785714 107.4492,6.54642857 L107.45352,6.54642857 C107.45352,6.72642857 107.46648,6.97928571 107.4816,7.18285714 L107.51616,7.83214286 L107.71056,7.83214286 L107.61768,6.35785714 L107.36064,6.35785714 L107.36064,6.35785714 Z M49.16808,13.9178571 C49.2912,18.585 49.26744,23.2607143 49.29552,27.9342857 C49.29768,28.5578571 49.06872,28.7614286 48.42288,28.7657143 C47.31048,28.77 46.20024,28.7678571 45.09,28.7657143 C44.14824,28.7657143 44.0316,28.65 43.98408,27.7285714 C43.97976,27.6278571 43.96032,27.5292857 43.9344,27.3342857 C43.30152,27.6835714 42.76368,28.0178571 42.19776,28.29 C40.22136,29.2392857 38.16288,29.3271429 36.08496,28.7207143 C34.2144,28.1678571 33.0696,26.8907143 32.61168,25.0157143 C32.2812,23.6614286 32.25312,22.3007143 32.52744,20.9528571 C32.95512,18.8657143 34.37424,17.7064286 36.34848,17.1192857 C38.26008,16.545 40.22784,16.4807143 42.20208,16.5 C43.61472,16.5171429 43.61688,16.5042857 43.61256,15.0835714 C43.61256,14.7171429 43.63848,14.34 43.57152,13.9842857 C43.35984,12.84 42.58656,12.1264286 41.31216,12.1264286 C39.17808,12.1264286 37.04184,12.2164286 34.90992,12.3364286 C33.86448,12.3985714 33.72624,12.3471429 33.72624,11.2992857 C33.72624,10.5642857 33.7392,9.82714286 33.72192,9.09642857 C33.71328,8.68714286 33.87528,8.40642857 34.2684,8.325 C37.57968,7.62428571 40.90824,7.14 44.26704,7.96714286 C47.29536,8.70642857 49.086,10.7957143 49.16808,13.9178571 L49.16808,13.9178571 Z M43.74432,23.3935714 C43.69464,22.9071429 43.73352,22.4142857 43.73352,21.9214286 C43.73352,21.2892857 43.75728,20.655 43.71624,20.025 C43.70544,19.8664286 43.48728,19.59 43.3728,19.5942857 C42.08544,19.6392857 40.7916,19.6735714 39.51288,19.83 C38.7288,19.9285714 38.15424,20.4964286 37.99656,21.2721429 C37.84968,21.9985714 37.80648,22.7657143 37.86696,23.5092857 C37.93608,24.3235714 38.52792,24.7992857 39.33576,24.9364286 C40.63392,25.1592857 41.85648,24.9085714 43.06608,24.4435714 C43.58664,24.2464286 43.80912,23.9592857 43.74432,23.3935714 L43.74432,23.3935714 Z M104.14656,15.0728571 C104.15736,19.32 104.15304,23.5692857 104.15088,27.8164286 C104.15088,28.6585714 104.04504,28.755 103.1832,28.755 C102.11184,28.7614286 101.0448,28.7614286 99.97344,28.755 C99.05328,28.755 98.99496,28.7014286 98.94744,27.8121429 C98.94312,27.7071429 98.93232,27.6064286 98.91072,27.5035714 C98.9064,27.465 98.86752,27.4414286 98.80488,27.3471429 C98.67096,27.4071429 98.54784,27.4457143 98.45064,27.5142857 C97.0164,28.575 95.36616,28.9885714 93.6144,29.1235714 C90.1476,29.4021429 87.49728,27.1392857 87.33312,23.6935714 C87.29208,22.845 87.27048,21.9792857 87.39792,21.1457143 C87.71328,19.1357143 88.96176,17.8007143 90.88632,17.2628571 C92.33784,16.86 93.86064,16.6885714 95.36184,16.5128571 C96.23448,16.4078571 97.13088,16.4828571 98.01648,16.4957143 C98.40528,16.5085714 98.59752,16.3757143 98.57592,15.9728571 C98.54352,15.3664286 98.59968,14.7428571 98.496,14.1428571 C98.26488,12.8035714 97.50024,12.1071429 96.13512,12.1114286 C94.02048,12.1242857 91.90584,12.2185714 89.78904,12.3364286 C88.72632,12.3921429 88.57512,12.3085714 88.57512,11.2242857 C88.57512,10.5514286 88.57728,9.87642857 88.57512,9.20357143 C88.57296,8.68071429 88.79976,8.38928571 89.33976,8.265 C91.8,7.71428571 94.284,7.41642857 96.79824,7.57285714 C97.85016,7.63928571 98.91936,7.86857143 99.9216,8.20071429 C102.31272,8.99142857 103.63248,10.7357143 104.01696,13.1785714 C104.11416,13.8085714 104.1444,14.445 104.14656,15.0728571 L104.14656,15.0728571 Z M98.70552,23.5885714 C98.6796,23.0335714 98.7012,22.485 98.69688,21.9364286 C98.69688,21.3492857 98.68608,20.7535714 98.70552,20.1621429 C98.71416,19.7592857 98.57376,19.5557143 98.13528,19.575 C97.35552,19.5921429 96.56712,19.53 95.79168,19.59 C93.1932,19.785 92.72232,20.7428571 92.68992,22.8621429 C92.67264,24.1092857 93.258,24.7821429 94.25808,24.9514286 C95.64696,25.1764286 96.94512,24.8914286 98.20872,24.3364286 C98.55216,24.1842857 98.72064,23.9785714 98.70552,23.5885714 L98.70552,23.5885714 Z M28.51416,0.565714286 L24.93288,0.565714286 C24.03648,0.567857143 23.95224,0.655714286 23.95224,1.55571429 L23.95224,14.6014286 L23.95224,27.8935714 C23.95224,28.6285714 24.07968,28.7507143 24.80976,28.755 C25.98048,28.7614286 27.15336,28.755 28.3284,28.755 C29.43216,28.755 29.53368,28.6585714 29.53368,27.5785714 L29.53368,5.22214286 C29.53368,3.99642857 29.53584,2.77285714 29.53368,1.54714286 C29.53152,0.713571429 29.376,0.567857143 28.51416,0.565714286 L28.51416,0.565714286 Z M104.95872,6.51857143 L105.41232,6.51857143 L105.41232,7.83214286 L105.60672,7.83214286 L105.60672,6.51857143 L106.06032,6.51857143 L106.06032,6.35785714 L104.95872,6.35785714 L104.95872,6.51857143 L104.95872,6.51857143 Z M63.34416,7.54714286 C61.73712,7.61571429 60.2856,8.11714286 58.98528,9.04928571 C58.80816,9.17785714 58.63104,9.29571429 58.36536,9.48428571 C58.34376,9.19071429 58.32,9.01714286 58.32,8.84142857 C58.30272,7.96285714 58.1472,7.8 57.28104,7.8 C56.16432,7.79571429 55.0584,7.79785714 53.946,7.79785714 C52.92864,7.8 52.76016,7.96285714 52.76016,8.96785714 L52.76016,17.4192857 C52.76016,20.835 52.758,24.2442857 52.76016,27.6492857 C52.76016,28.5535714 52.96104,28.755 53.8272,28.755 C54.99792,28.7614286 56.17512,28.7614286 57.348,28.755 C58.29408,28.755 58.44528,28.6135714 58.44528,27.645 C58.44744,23.1171429 58.45176,18.5828571 58.43664,14.0442857 C58.43664,13.5964286 58.5684,13.3414286 58.98312,13.1464286 C60.35688,12.5057143 61.7652,12.0257143 63.3096,12.0878571 C63.87552,12.1114286 64.14984,11.8992857 64.13688,11.3057143 C64.11312,10.3028571 64.11744,9.30642857 64.13472,8.30571429 C64.13688,7.75928571 63.89064,7.52571429 63.34416,7.54714286 L63.34416,7.54714286 Z M5.05224,0.567857143 C3.96144,0.561428571 2.87064,0.557142857 1.77768,0.57 C0.63288,0.587142857 0,1.23428571 0,2.37428571 L0,14.9957143 L0,27.8014286 C0,28.5492857 0.10152,28.65 0.85752,28.65 C1.96776,28.6585714 3.08016,28.6585714 4.1904,28.65 C5.3568,28.6414286 5.94216,28.065 5.94216,26.9142857 L5.94216,1.48714286 C5.94432,0.743571429 5.78664,0.574285714 5.05224,0.567857143 L5.05224,0.567857143 Z M17.32104,19.7892857 C14.9364,17.3164286 12.00312,15.9557143 8.80416,15.6407143 C7.77168,15.6214286 7.76304,15.6214286 7.79112,16.395 C7.80192,16.68 7.85808,16.9607143 7.90128,17.2435714 C8.47368,21.0042857 10.32696,24 13.41144,26.2392857 C15.4332,27.7135714 17.72064,28.4785714 20.21112,28.71 C20.952,28.7807143 21.07728,28.7292857 21.00384,28.0092857 C20.68632,24.8721429 19.53504,22.0885714 17.32104,19.7892857 L17.32104,19.7892857 Z M20.2284,0.636428571 C19.94544,0.681428571 19.65168,0.664285714 19.37088,0.707142857 C16.12656,1.21928571 13.37256,2.64428571 11.18232,5.085 C9.17568,7.31785714 8.06112,9.95142857 7.7976,12.9257143 C7.73064,13.7014286 7.77384,13.7035714 8.5968,13.8085714 C9.72648,13.5321429 10.90152,13.3628571 11.98152,12.9557143 C17.37504,10.9242857 20.3256,6.98142857 21.006,1.32428571 C21.0924,0.606428571 20.97144,0.525 20.2284,0.636428571 L20.2284,0.636428571 Z" id="Shape"></path>
                </g>
            </g>
        </g>
    </g>
</svg>