<?xml version="1.0" encoding="UTF-8" standalone="no"?>
<svg width="235px" height="63px" viewBox="0 0 235 63" version="1.1" xmlns="http://www.w3.org/2000/svg" xmlns:xlink="http://www.w3.org/1999/xlink" xmlns:sketch="http://www.bohemiancoding.com/sketch/ns">
    <!-- Generator: Sketch 3.2.2 (9983) - http://www.bohemiancoding.com/sketch -->
    <title>klarna</title>
    <desc>Created with Sketch.</desc>
    <defs></defs>
    <g id="Page-1" stroke="none" stroke-width="1" fill="none" fill-rule="evenodd" sketch:type="MSPage">
        <g id="Klarna" sketch:type="MSArtboardGroup" fill="#172F2D">
            <g id="klarna" sketch:type="MSLayerGroup">
                <path d="M63.6102589,0.237461538 L53.6269305,0.237461538 C52.9087204,0.237461538 52.2749852,0.826961538 52.2749852,1.50403846 L52.2749852,60.6246923 C52.2749852,61.3128462 52.9320118,61.9632692 53.6269305,61.9632692 L63.6102589,61.9632692 C64.3399408,61.9632692 64.7942973,61.2633462 64.7942973,60.6246923 L64.7942973,1.50403846 C64.7942973,0.773653846 64.2787574,0.237461538 63.6102589,0.237461538 L63.6102589,0.237461538 Z M170.143476,15.3848077 C164.884482,15.3848077 161.328543,16.5105 157.020673,19.5452308 L156.447774,19.9519615 L156.447774,17.2976538 C156.447774,16.5942692 155.882522,16.0352308 155.183432,16.0352308 L146.017389,16.0352308 C145.318646,16.0352308 144.749571,16.5942692 144.749571,17.2976538 L144.749571,60.6246923 C144.749571,61.3128462 145.40625,61.9632692 146.097692,61.9632692 L155.993417,61.9632692 C156.67304,61.9632692 157.265059,61.3433077 157.265059,60.6246923 L157.265059,28.3146923 L157.459734,28.2122308 C160.476842,26.6226923 162.967286,25.5728077 165.323543,25.5728077 C170.815451,25.5728077 171.739808,28.0180385 171.739808,33.4945385 L171.739808,60.6246923 C171.739808,61.3433077 172.331827,61.9632692 173.003802,61.9632692 L182.903351,61.9632692 C183.598617,61.9632692 184.255296,61.3128462 184.255296,60.6246923 L184.255296,33.4945385 C184.255296,20.8038462 180.031206,15.3848077 170.143476,15.3848077 L170.143476,15.3848077 Z M221.916479,19.1495769 C218.815244,16.6472308 214.186509,15.3848077 208.159941,15.3848077 C202.96213,15.3848077 197.336036,16.3010769 194.097485,17.0809615 C193.284024,17.2786154 192.825843,17.7957692 192.825843,18.5147308 L192.825843,25.1165769 C192.825843,25.8542308 193.188772,26.208 193.937226,26.208 L194.338047,26.208 C196.76696,25.9798846 202.618321,25.6413462 207.911731,25.6413462 C211.818432,25.6413462 214.415599,26.6642308 214.415599,31.6346538 L214.415599,34.9206923 L209.626605,34.9206923 C202.660385,34.9206923 197.721908,35.9892692 194.536893,38.1717692 C191.408891,40.3203462 189.881043,43.6368462 189.881043,48.33 L189.881043,49.0562308 C189.881043,60.9289615 198.417175,62.7012692 203.50409,62.7012692 C207.854371,62.7012692 211.08145,61.6555385 214.652685,59.1033462 L215.236709,58.6931538 L215.236709,60.6970385 C215.236709,61.4080385 215.805784,61.9632692 216.504874,61.9632692 L225.667093,61.9632692 C226.362012,61.9632692 226.939083,61.4080385 226.939083,60.6970385 L226.939083,31.6346538 C226.939083,26.0255769 225.246805,21.8229231 221.916479,19.1495769 L221.916479,19.1495769 Z M214.659985,51.5661923 L214.457663,51.6610385 C211.990163,52.8971538 209.740976,53.4939231 207.590518,53.4939231 C204.096109,53.4939231 202.071842,52.7676923 202.071842,49.0562308 L202.071842,48.33 C202.071842,43.7320385 204.126701,42.0054231 209.626605,42.0054231 L214.659985,42.0054231 L214.659985,51.5661923 L214.659985,51.5661923 Z M138.718831,15.3848077 C134.766243,15.3848077 130.824778,16.7728846 127.91057,19.2066923 L127.31855,19.7048077 L127.31855,17.2976538 C127.31855,16.5942692 126.741827,16.0352308 126.042737,16.0352308 L116.307618,16.0352308 C115.616524,16.0352308 115.0398,16.5942692 115.0398,17.2976538 L115.0398,60.6246923 C115.0398,61.3128462 115.696479,61.9632692 116.391746,61.9632692 L126.287123,61.9632692 C126.967093,61.9632692 127.562936,61.3433077 127.562936,60.6246923 L127.562936,28.5618462 L127.749963,28.4555769 C131.367086,26.5046538 134.880614,25.5728077 138.474445,25.5728077 L139.127648,25.5728077 C139.620244,25.5728077 139.990821,24.9341538 139.990821,24.3785769 L139.990821,16.6472308 C139.990821,15.9514615 139.417922,15.3848077 138.718831,15.3848077 L138.718831,15.3848077 Z M102.676923,19.1495769 C99.5795118,16.6472308 94.9431287,15.3848077 88.9203846,15.3848077 C83.7222263,15.3848077 78.0964793,16.3010769 74.861753,17.0809615 C74.0406435,17.2938462 73.586287,17.7957692 73.586287,18.5147308 L73.586287,25.1165769 C73.586287,25.8542308 73.9488683,26.208 74.6934985,26.208 L75.0984911,26.208 C77.5277515,25.9798846 83.3707692,25.6413462 88.6759985,25.6413462 C92.5868713,25.6413462 95.1760429,26.6642308 95.1760429,31.6346538 L95.1760429,34.9206923 L90.3908728,34.9206923 C83.4204808,34.9206923 78.486176,35.9892692 75.2931657,38.1717692 C72.1655104,40.3203462 70.6414867,43.6368462 70.6414867,48.33 L70.6414867,49.0562308 C70.6414867,60.9289615 79.1696228,62.7012692 84.2607101,62.7012692 C88.6109911,62.7012692 91.8418935,61.6555385 95.4127811,59.1033462 L95.9933284,58.6931538 L95.9933284,60.6970385 C95.9933284,61.4080385 96.5662278,61.9632692 97.265318,61.9632692 L106.423713,61.9632692 C107.122456,61.9632692 107.699527,61.4080385 107.699527,60.6970385 L107.699527,31.6346538 C107.699527,26.0255769 106.007249,21.8229231 102.676923,19.1495769 L102.676923,19.1495769 Z M95.420429,51.5661923 L95.2181065,51.6610385 C92.7433062,52.8971538 90.4975962,53.4939231 88.3509615,53.4939231 C84.8565533,53.4939231 82.8322855,52.7676923 82.8322855,49.0562308 L82.8322855,48.33 C82.8322855,43.7320385 84.883321,42.0054231 90.3908728,42.0054231 L95.420429,42.0054231 L95.420429,51.5661923 L95.420429,51.5661923 Z" id="Fill-1" sketch:type="MSShapeGroup"></path>
                <path d="M17.1915015,29.2846154 C27.5607027,29.1513462 37.1929216,23.5498846 42.4022041,14.5671923 C44.9381879,10.2243462 46.2977811,5.27642308 46.3627885,0.237461538 C41.294645,0.302192308 36.3259246,1.64838462 31.9641716,4.17357692 C22.9510873,9.35723077 17.3138683,18.9519231 17.1915015,29.2846154" id="Fill-2" sketch:type="MSShapeGroup"></path>
                <path d="M12.1960133,0.237461538 L3.95815089,0.237461538 C1.93388314,0.237461538 0.303136095,1.86126923 0.303136095,3.87311538 L0.303136095,60.4803462 C0.303136095,61.1304231 0.860739645,61.8265385 1.7698003,61.8265385 L10.0191346,61.8265385 C12.0319305,61.8265385 13.6741494,60.1954615 13.6741494,58.1874231 L13.6741494,1.50403846 C13.6741494,0.773653846 13.0400666,0.237461538 12.1960133,0.237461538" id="Fill-3" sketch:type="MSShapeGroup"></path>
                <path d="M17.1915015,32.9240769 C17.3138683,43.2526154 22.9510873,52.8518077 31.9641716,58.0271538 C36.3259246,60.5488846 41.294645,61.9023462 46.3627885,61.9632692 C46.2977811,56.9208462 44.9381879,51.9767308 42.4022041,47.6304231 C37.1929216,38.6473846 27.5683506,33.0573462 17.1915015,32.9240769" id="Fill-4" sketch:type="MSShapeGroup"></path>
                <path d="M230.341021,16.29 L229.453861,16.29 L229.453861,19.4625 C229.453861,19.5223846 229.404497,19.5715385 229.344357,19.5715385 L228.627189,19.5715385 C228.567049,19.5715385 228.518033,19.5223846 228.518033,19.4625 L228.518033,16.29 L227.625658,16.29 C227.56517,16.29 227.516154,16.2467308 227.516154,16.1865 L227.516154,15.6250385 C227.516154,15.5651538 227.56517,15.5215385 227.625658,15.5215385 L230.341021,15.5215385 C230.401161,15.5215385 230.45574,15.5651538 230.45574,15.6250385 L230.45574,16.1865 C230.45574,16.2467308 230.401161,16.29 230.341021,16.29" id="Fill-5" sketch:type="MSShapeGroup"></path>
                <path d="M234.583883,19.5715385 L233.861501,19.5715385 C233.81179,19.5715385 233.773898,19.5223846 233.773898,19.4625 L233.773898,17.1896538 C233.773898,17.1512308 233.757212,17.1460385 233.746435,17.1460385 C233.730096,17.1460385 233.718624,17.1567692 233.702633,17.1841154 L233.210037,18.0834231 C233.17145,18.1488462 233.116871,18.1761923 233.045607,18.1761923 L232.607589,18.1761923 C232.536324,18.1761923 232.481746,18.1488462 232.443506,18.0834231 L231.95091,17.1841154 C231.934571,17.1567692 231.923099,17.1460385 231.90676,17.1460385 C231.895984,17.1460385 231.879297,17.1512308 231.879297,17.1896538 L231.879297,19.4625 C231.879297,19.5223846 231.841405,19.5715385 231.791694,19.5715385 L231.069312,19.5715385 C231.02551,19.5715385 230.976494,19.5552692 230.976494,19.4950385 L230.976494,15.7070769 C230.976494,15.5925 231.058536,15.5215385 231.173254,15.5215385 L231.688099,15.5215385 C231.803166,15.5215385 231.879297,15.5762308 231.929009,15.6686538 L232.766457,17.2221923 C232.788358,17.2658077 232.805044,17.2931538 232.826598,17.2931538 C232.848151,17.2931538 232.864837,17.2658077 232.886738,17.2221923 L233.724186,15.6686538 C233.773898,15.5762308 233.85003,15.5215385 233.965096,15.5215385 L234.479941,15.5215385 C234.59466,15.5215385 234.676701,15.5980385 234.676701,15.7122692 L234.676701,19.4950385 C234.676701,19.5552692 234.627685,19.5715385 234.583883,19.5715385" id="Fill-6" sketch:type="MSShapeGroup"></path>
            </g>
        </g>
    </g>
</svg>