<?xml version="1.0" encoding="UTF-8" standalone="no"?>
<svg width="244px" height="236px" viewBox="0 0 244 236" version="1.1" xmlns="http://www.w3.org/2000/svg" xmlns:xlink="http://www.w3.org/1999/xlink" xmlns:sketch="http://www.bohemiancoding.com/sketch/ns">
    <!-- Generator: Sketch 3.2.2 (9983) - http://www.bohemiancoding.com/sketch -->
    <title>k</title>
    <desc>Created with Sketch.</desc>
    <defs></defs>
    <g id="Page-1" stroke="none" stroke-width="1" fill="none" fill-rule="evenodd" sketch:type="MSPage">
        <g id="Kollegorna-K" sketch:type="MSArtboardGroup" transform="translate(-78.000000, -82.000000)" fill="#FEE18A">
            <g id="kollegorna-k" sketch:type="MSLayerGroup">
                <path d="M193.676343,268.738908 L176.478479,225.232186 L165.597883,276.459595 C159.983164,302.77319 147.697469,316.105973 122.778048,316.105973 L110.492353,316.105973 C87.3293065,316.105973 73.6417568,302.070867 79.2572866,275.758083 L111.546177,124.533176 C117.161707,97.8651759 129.447403,85.5866879 153.664273,85.5866879 L166.649273,85.5866879 C189.814754,85.5866879 203.503114,99.6193614 197.886773,125.935389 L186.655714,178.565011 L267.732055,82.0775058 C268.786691,81.0240212 321.784571,90.4988941 321.784571,123.47888 C321.784571,135.410262 315.117651,148.391073 300.72674,162.074207 L253.69323,209.792434 L272.297005,246.985547 C281.771691,265.932049 290.898346,272.950413 305.990995,273.650303 C308.448297,273.650303 306.343081,317.159458 255.800879,317.159458 C219.299124,317.159458 205.959604,299.966331 193.676343,268.738908" id="k" sketch:type="MSShapeGroup"></path>
            </g>
        </g>
    </g>
</svg>