<?xml version="1.0" encoding="UTF-8" standalone="no"?>
<svg width="465px" height="423px" viewBox="0 0 465 423" version="1.1" xmlns="http://www.w3.org/2000/svg" xmlns:xlink="http://www.w3.org/1999/xlink" xmlns:sketch="http://www.bohemiancoding.com/sketch/ns">
    <!-- Generator: Sketch 3.2.2 (9983) - http://www.bohemiancoding.com/sketch -->
    <title>kong</title>
    <desc>Created with Sketch.</desc>
    <defs></defs>
    <g id="Page-1" stroke="none" stroke-width="1" fill="none" fill-rule="evenodd" sketch:type="MSPage">
        <g id="kong" sketch:type="MSLayerGroup">
            <g id="Group" transform="translate(153.000000, 228.000000)" fill="#CEA439" sketch:type="MSShapeGroup">
                <path id="Shape" d="M75.1,50.8 C75.1,50.8 74.9,50.7 74.6,50.5 C74.9,50.7 75.1,50.8 75.1,50.8 L75.1,50.8 Z"></path>
                <path d="M139.8,55.3 C128.6,37.1 120.9,43.1 120.4,43.5 C120.1,44 119.9,44.6 119.7,45.2 C118.8,48.1 118.7,50.6 118.8,52 L118.8,52 C118.8,52.7 118.9,53.2 118.9,53.2 C118.9,53.2 118.7,52.5 118.4,51.4 C117.8,50.3 116.6,48 116.6,45.6 C116.6,43.5 116.9,41.8 117,40.8 C115.1,40.8 113.9,40.5 113.9,40.5 C113.9,40.5 115.3,40.3 117.1,39.9 C117.4,39.8 117.7,39.8 117.9,39.7 C117.9,39.7 122.7,37.9 125.5,33.7 C128.3,29.5 124.4,23.5 121,23.9 C119.4,24.1 118,23.6 117,22.9 C114.5,23.3 110.9,23.4 108,21.5 C107.3,21 106.6,20.4 105.9,19.7 C101.2,19 97.4,17.1 94.4,14 C89.3,16.6 86.3,15.3 86.3,15.3 L86.3,15.3 C85,15.1 84.3,14.7 84.3,14.7 C84.3,14.7 87.7,15.3 91.7,11.6 C91.7,11.5 91.9,11.3 92,11 C91.1,9.7 90.2,8.2 89.4,6.5 C89.2,6.1 89,5.9 88.9,5.6 C88.2,4.5 87.3,3.6 86.3,2.8 C85.3,3.4 84.8,3.9 84.8,3.9 C84.8,3.9 85,3.4 85.6,2.7 L85.6,2.7 C85.7,2.6 85.7,2.6 85.8,2.5 C81.9,-6.06181771e-14 76.4,-0.1 72.8,2.7 C73.4,3.4 73.6,4 73.6,4 C73.6,4 73.5,3.9 73.4,3.8 C73.2,4 72.3,4.6 71.1,4.4 C70.9,4.6 70.8,4.8 70.6,5.1 C70.3,5.6 70,6 69.7,6.6 C68.9,8.4 67.9,10 66.9,11.4 C71.1,15.4 74.6,14.8 74.6,14.8 C74.6,14.8 74.4,14.9 74,15.1 C73.1,15.7 70.1,17.3 65.6,14.7 C65.3,14.5 64.9,14.3 64.6,14.1 C60.9,17.8 56.2,19.8 50.1,20 C46.7,24.6 43.4,26.6 39,25.5 C35.8,24.7 33.4,26.9 32,29 C32.5,30.9 33.6,33.2 36,35.1 C41.4,39.3 46.1,40.4 46.1,40.4 L44.8,40.4 L45,40.4 C45,40.4 42.9,40.9 40,40.6 C41.1,42.3 41.4,44.5 41.3,46.6 L41.3,46.6 C41.2,50 40.1,53.1 40.1,53.1 C40.1,53.1 40.1,52.8 40.2,52.3 C40.2,52.3 39.4,46 33.1,44.1 C26.9,42.2 18.1,50.5 12.7,59.9 C3.2,77.8 0.5,96.1 0.5,96.1 L10.5,79.3 C10.3,79.7 6.8,85.9 6.8,108.3 C6.8,110.8 7,113.1 7.3,115.2 C7.6,116.5 10.6,126.5 22.2,136.1 C34.7,146.3 45.6,146.1 53.1,147.7 C60.6,149.3 66.4,151.5 66.4,151.5 L66.4,151.5 C75.8,152.8 82.7,155.6 82.7,155.6 C82.7,155.6 76,154.2 68.1,153.6 C74,155.8 84.9,159.2 94.3,157.6 C102.3,156.3 106.6,154.8 108.8,153.7 C105.4,152.3 103.6,150.9 103.6,150.9 C103.6,150.9 117.8,152.3 127.6,150.1 C137.4,147.9 147.2,135.2 139,138.8 C138,139.5 137.1,140.2 136,141.1 C126.9,148.9 109.6,143.7 109.6,143.7 L109.6,143.7 C106.8,143.2 104.7,142.4 103.7,142 C103.3,141.8 103,141.7 103,141.7 C103,141.7 104.2,142 106.2,142.2 C110.9,142.4 121.3,141.9 127.7,135.5 C135.5,127.7 145.2,122.6 150.6,123 C151.1,118.8 151.5,113.9 151.5,108.3 C151.5,102.3 151.3,97.5 150.9,93.6 C152.3,113.7 147.4,118.3 146.7,118.9 C143.6,123.7 137.4,121 141.9,116.6 C146.7,111.8 140.4,111.4 140.4,111.4 C137.7,113.1 134.1,115.2 129.8,117.3 L129.8,117.3 C129.8,117.3 114.2,129.5 84,131.3 C59,132.7 37.8,121.2 31.1,117.2 C26.7,115.6 20.1,113.8 21.1,116.9 C22.4,121.1 18.2,123.2 15,117.8 C14.9,117.6 14.8,117.5 14.7,117.3 C14.6,117.2 14.6,117.1 14.5,116.9 C14.5,116.9 14.5,116.9 14.5,116.8 C14.5,116.7 14.4,116.6 14.4,116.5 C11.2,112.1 5.9,102.1 10,87.3 C15.8,66.8 31.3,55.3 31.3,55.3 C31.3,55.3 29.5,57.8 27.2,62.1 C26.8,62.8 18.9,77.2 25.2,78.8 C31.6,80.4 43.2,79.9 43.2,79.9 C52.9,78.2 61,76 61,76 C61,76 53.2,83.2 37.1,85.9 C33.6,86.5 30.7,86.8 28.1,87 C33.5,87.5 40.4,87.7 48.3,86.9 C66.9,85.1 69.2,84.9 69.2,84.9 L69.2,84.9 C70.6,84.7 72,84.6 73.4,84.5 L73.5,84.5 C80.1,83.8 75.5,63.9 71.6,59 C67.7,54.1 70.8,50.7 70.8,50.7 C70.8,50.7 71.7,52 74.6,52.5 C77.5,53.1 77.6,61.4 78,66.6 C78.1,67.7 78.1,69 78.1,70.1 C78.7,74 79.1,78 79.5,80.7 L79.5,80.7 C80.7,80.7 81.5,76.2 82,71.6 C82.1,69 82.4,65.4 82.8,62.1 L82.8,62.1 L82.8,62.1 C83.3,57.7 84,53.8 85,53.5 C87.4,52.7 88.4,50.6 88.4,50.6 C88.4,50.6 88.6,51.3 87.9,52.8 L87.9,52.8 C87.9,52.8 80.4,79.2 82.6,81.9 C84,83.7 85.7,84.2 86.6,84.4 C86.8,84.4 87.1,84.4 87.3,84.5 L87.3,84.5 L87.3,84.5 C93.5,85 99.8,86.1 106.2,87.2 C106.4,87.2 130.6,89.9 130.6,87.2 C130.6,85.5 126.6,84.1 123.5,83.3 C122.4,83.1 121.2,82.8 120.1,82.5 L120,82.5 L120,82.5 C109.5,79.9 101,75.9 101,75.9 C101,75.9 124.7,79.5 132.1,79.5 C136.9,79.5 139.9,77.8 141.4,76.6 C138.6,69.7 135.4,63.9 133.3,60.3 L130.8,56.3 C130.8,56.3 148.1,70.5 150.9,90.7 C150.2,84.8 149.2,81.7 148.6,80.3 L148.1,79.3 C148.1,79.3 151.4,74.1 139.8,55.3 L139.8,55.3 Z M20.3,125.9 C20.3,125.9 23.8,120.3 43.4,133.2 C63,146.1 81.6,141.5 81.7,141.5 C82,141.3 82.2,141.3 82.2,141.3 C82.2,141.3 77.3,145.6 71.1,146.8 L71.1,146.8 C71.1,146.8 68.9,147.4 64.1,147.2 L63.8,147.2 C61.7,147.1 59.2,146.8 56.1,146.3 C45.6,144.5 24,135.7 19.5,127.7 C18.9,127.1 19.1,126.3 20.3,125.9 L20.3,125.9 Z M18.4,65.7 C15.5,73.2 13.9,79.7 10.4,77.9 C7.7,76.5 13.5,64.5 21,56.9 C24.6,53.1 27.6,51.9 27.6,51.9 C27.6,51.9 21.2,58.2 18.4,65.7 L18.4,65.7 Z M73.9,50.4 C73.9,50.4 67.2,50.3 63.1,43 C58.9,35.7 55.8,39.2 58.4,41.9 C61.1,44.6 57.5,48.1 51.2,43 C46.5,39.1 47,34.8 47.5,33 L47.5,33 C47.5,32.7 47.6,32.4 47.8,32.1 L47.8,32.1 L47.8,32.1 C49,30.6 53,29.9 53,29.9 C53,29.9 54.2,28.3 58.8,27 C59,26.9 59.2,26.9 59.3,26.9 L59.1,26.6 C59.1,26.6 68.8,23.6 69.8,33.8 C70.8,44 74.9,50.8 74.9,50.8 C74.9,50.8 74.6,50.7 73.9,50.4 L73.9,50.4 Z M110.7,37.1 C109.2,44.3 99.2,44.9 99.2,44.9 C99.2,44.9 101.2,43.9 102.1,41.1 C103,38.3 99.4,39 96.8,43.2 C94.2,47.4 90.2,46.5 90.2,46.5 L90.2,46.5 C89.9,46.9 89.6,47.4 89.2,47.8 C87.6,50 84.1,50.8 84.1,50.8 C84.1,50.8 89.2,48.6 90,38.3 C90.2,36.1 90.6,34.2 91.2,32.6 C91.2,32.6 94.2,22.7 101.5,25.9 C108.8,29.1 111.8,28 112.3,31.5 C112.8,35 110.7,37.1 110.7,37.1 L110.7,37.1 Z" id="Shape"></path>
                <path d="M72,52.2 L70.9,50.7 L71.7,51.9 C71.9,52 72,52.1 72,52.2 L72,52.2 Z" id="Shape"></path>
                <path d="M139.3,138.8 L142.8,136.8 C141.7,137.3 140.5,137.9 139.3,138.8 L139.3,138.8 Z" id="Shape"></path>
            </g>
            <g id="Group" transform="translate(170.000000, 316.000000)" fill="#FFF491" sketch:type="MSShapeGroup">
                <path d="M41.3,19.8 C36.4,19.5 32.1,19.1 28.2,18.7 C28.2,19.3 28.2,19.9 28.3,20.5 L28.3,20.6 C28.3,21.1 28.3,21.7 28.4,22.2 L28.4,22.4 C28.4,22.9 28.5,23.4 28.5,23.9 L28.5,24.1 C28.5,24.6 28.6,25 28.6,25.5 L28.6,25.7 C28.6,26.1 28.7,26.5 28.7,26.9 L28.7,27.1 C28.7,27.5 28.8,27.9 28.8,28.2 L28.8,28.4 C28.8,28.7 28.9,29.1 28.9,29.4 L28.9,29.6 C28.9,29.9 29,30.3 29,30.6 C29.3,31.3 29.8,32.1 31.2,32.5 C34.5,33.6 37.6,34.5 40.4,35.2 C41.6,33.7 41.1,29.6 41.3,19.8 L41.3,19.8 Z" id="Shape"></path>
                <path d="M28.7,8.5 C28.6,9 28.6,9.5 28.5,10 L28.5,10.1 C28.4,11.2 28.3,12.4 28.2,13.5 C32.1,14 36.5,14.5 41.4,14.8 C41.7,2.8 38.8,1.7 37.8,1.7 C36.1,1.9 34.4,2.2 32.7,2.5 C30.3,3.1 29.1,6.4 29,6.6 C28.9,7.1 28.8,7.7 28.7,8.3 C28.8,8.4 28.8,8.5 28.7,8.5 L28.7,8.5 Z" id="Shape"></path>
                <path d="M44.6,20 L44.6,20 C44.6,20.7 44.6,21.4 44.7,22 L44.7,22.1 C44.7,22.7 44.8,23.3 44.8,23.9 L44.8,24.1 C44.8,24.7 44.9,25.2 44.9,25.8 L44.9,26 C44.9,26.5 45,27 45,27.6 L45,27.8 C45,28.3 45.1,28.7 45.1,29.2 L45.1,29.5 C45.1,29.9 45.2,30.3 45.2,30.7 L45.2,31 C45.2,31.4 45.3,31.7 45.3,32.1 L45.3,32.4 C45.3,32.8 45.4,33.2 45.4,33.6 C45.5,34.4 46,36.2 47.5,36.8 C48.2,37 48.9,37.1 49.6,37.2 C52.3,37.7 54.9,38 57.3,38.2 C58.1,35.9 60,30 60.7,20.7 C54.9,20.5 49.5,20.3 44.6,20 L44.6,20 Z" id="Shape"></path>
                <path d="M44.8,8.2 C44.8,8.8 44.7,9.3 44.7,9.9 L44.7,10.6 C44.7,11.2 44.6,11.8 44.6,12.4 L44.6,12.9 L44.6,15.1 L44.6,15.1 C49.6,15.4 55.2,15.6 61.3,15.7 L61.3,14.6 C61.5,3.1 59.1,0.7 57.6,0.4 C54.7,0.5 51.8,0.6 49,0.7 C48.7,0.8 45.9,1.7 45.1,5.2 C45,6 44.9,6.7 44.9,7.5 C44.8,7.7 44.8,8 44.8,8.2 L44.8,8.2 Z" id="Shape"></path>
                <path d="M7.9,15.4 L7.9,15.3 C4.2,14.4 1.7,13.5 0.2,12.8 C0.2,13 0.2,13.1 0.3,13.3 C0.4,13.4 0.4,13.6 0.5,13.7 C0.5,13.8 0.6,13.8 0.6,13.9 C0.7,14 0.7,14.1 0.8,14.2 C0.9,14.4 1,14.6 1.1,14.7 C1.1,14.7 6.7,20.5 7.9,15.4 L7.9,15.4 Z" id="Shape"></path>
                <path d="M6.9,4 L6.6,4 L6.3,4 L5.9,4 L5.7,4 L5.3,4 L5.1,4 C4.9,4 4.8,4 4.6,4.1 C4.6,4.1 4.6,4.1 4.5,4.1 C3.7,4.2 3,4.4 2.3,4.6 L2.3,4.6 C2.1,4.7 2,4.7 1.8,4.8 L1.7,4.8 C1.6,4.9 1.4,4.9 1.3,5 C1.3,5 1.2,5 1.2,5.1 L1.2,5.1 C0.9,5.5 0.7,5.9 0.6,6.4 C1.9,7.1 4.4,8.1 8.4,9.3 C8.5,7 8.4,4.9 8.3,3.8 L7.8,3.8 L7.6,3.8 L7.3,3.8 L7,3.8 C7.1,4 7,4 6.9,4 L6.9,4 Z" id="Shape"></path>
                <path d="M99,27.9 L99,27.9 C99.3,25.4 99.5,22.1 99.6,18.5 L99.6,18.5 C95.7,19 91.6,19.5 87.2,19.8 L87.2,21.2 C87.2,28.3 85.5,33.7 87.4,35 C90,34.3 92.8,33.5 95.9,32.5 C95.9,32.4 96.1,32.3 96.6,32.2 C98,31.8 98.5,30.9 98.8,30.2 C98.9,29.8 98.9,29.4 99,28.9 L99,28.9 C98.9,28.6 98.9,28.3 99,27.9 L99,27.9 Z" id="Shape"></path>
                <path d="M86.9,15.1 C91.6,14.8 95.8,14.4 99.6,13.9 L99.6,13.9 C99.6,13.3 99.5,12.8 99.5,12.2 L99.5,11.9 C99.5,11.4 99.4,11 99.4,10.5 L99.4,10.1 C99.4,9.7 99.3,9.2 99.2,8.8 C99.2,8.7 99.2,8.5 99.1,8.4 C99,7.8 98.9,7.3 98.8,6.8 L98.8,6.7 C98.8,6.7 97.5,3 94.9,2.6 C94.7,2.6 94.6,2.5 94.4,2.5 C92.2,2.1 89.8,1.8 87.3,1.6 C86.6,2.3 85.7,3.5 85.7,5 C85.8,6.8 86.5,10.3 86.9,15.1 L86.9,15.1 Z" id="Shape"></path>
                <path d="M11.6,10.3 C11.6,10.4 11.6,10.4 11.6,10.3 C14.8,11.2 18.7,12 23.4,12.8 C23.7,10.8 24,9 24.5,7.5 C25.1,5.3 23.7,4.4 21.9,4.2 C20.4,4.3 18.9,4.4 17.4,4.4 L15,4.4 C15,4.4 13.3,4.4 12.5,6.6 C12.3,7.3 12.2,7.9 12,8.6 C11.8,9.2 11.7,9.8 11.6,10.3 L11.6,10.3 Z" id="Shape"></path>
                <path d="M23.4,25.1 C22.9,23.3 22.8,20.8 23,18 C18.4,17.4 14.5,16.7 11.4,16 C11.5,17.7 11.7,19.2 11.9,20.5 C12,20.9 12.1,21.4 12.2,21.8 C12.3,22 13.5,24.9 15.1,25.7 C16.9,26.6 18.9,27.5 21.1,28.5 C22.4,28.3 24,27.6 23.4,25.1 L23.4,25.1 Z" id="Shape"></path>
                <path d="M127.7,13.6 C127.8,13.4 127.8,13.3 127.9,13.1 C126.4,13.5 123.9,14.1 120.6,14.9 C120.5,17.4 120.1,19.7 119.8,21 C120.5,20.9 121.1,20.6 121.1,20.6 L120.5,21.3 C123.2,19.4 125.1,17.5 126.5,15.7 L126.4,15.7 C126.4,15.7 127,14.9 127.7,13.6 L127.7,13.6 Z" id="Shape"></path>
                <path d="M119.9,9.7 C123.8,8.4 126.2,7.2 127.5,6.4 C127.2,5.8 126.8,5.4 126.7,5.2 C126.6,5.1 126.5,5.1 126.4,5 L126.4,5 C126.1,4.9 125.8,4.7 125.5,4.6 L125.5,4.6 C124.9,4.4 124.2,4.2 123.5,4.1 L123.5,4.1 C123.2,4.1 122.8,4 122.5,4 L122.4,4 L121.5,4 L121.4,4 L120.6,4 C119.9,5 119.4,6.9 119.9,9.7 L119.9,9.7 Z" id="Shape"></path>
                <path d="M116.5,15.8 C116.5,15.8 116.5,15.7 116.5,15.8 C113,16.5 108.8,17.2 104.1,17.9 C104.1,21.1 103.9,24.2 103.2,26.4 C102.7,28 103.1,29.1 103.7,29.7 L103.8,29.7 L103.7,29.8 C103.7,29.8 103.7,29.9 103.8,29.9 C107.1,28.7 110,27.4 112.5,26.1 C112.3,26.1 112.3,26 112.6,25.8 C114.3,25 115.6,21.8 115.6,21.8 C115.6,21.8 115.6,21.8 115.6,21.7 C115.7,21.3 115.8,20.9 115.9,20.4 C116.3,19.1 116.4,17.5 116.5,15.8 L116.5,15.8 Z" id="Shape"></path>
                <path d="M103.6,10.1 C103.7,11.1 103.9,12.2 104,13.3 C109,12.5 113,11.7 116.3,10.8 C116.2,10.1 116.1,9.5 116,8.8 C115.9,8.1 115.7,7.4 115.5,6.7 C114.8,4.6 113.3,4.4 113,4.4 C110.3,4.4 107.6,4.4 104.8,4.1 C103.9,5.2 103.2,7.1 103.6,10.1 L103.6,10.1 Z" id="Shape"></path>
                <path d="M82.4,31.9 C82.4,31.5 82.5,31.1 82.5,30.6 L82.5,30.6 C82.8,27.8 83.1,24.2 83.2,20.2 L83.2,20.2 C77.6,20.6 71.7,20.8 65.5,20.7 C65.8,28.9 67,36.2 69.3,38.3 C70.6,38.2 71.7,38.1 72.5,38 L72.5,38 L72.7,38 C74.7,37.7 77,37.4 79.6,36.8 C79.7,36.8 79.8,36.7 79.9,36.7 C81.9,36 82.1,33.2 82.1,33.2 L82.1,33.2 C82.3,32.8 82.4,32.4 82.4,31.9 L82.4,31.9 L82.4,31.9 Z" id="Shape"></path>
                <path d="M65.6,12.6 C65.6,13.6 65.5,14.6 65.5,15.7 C72.1,15.7 78,15.5 83.3,15.3 L83.3,13 L83.3,12.3 C83.3,11.8 83.3,11.2 83.2,10.7 L83.2,9.9 C83.2,9.4 83.1,8.8 83.1,8.3 C83.1,8.1 83.1,7.8 83,7.6 C82.9,6.8 82.9,6.1 82.8,5.3 L82.8,5.3 C82.2,2.3 80.1,1.2 79.3,0.9 C76.2,0.7 73,0.5 69.8,0.5 C68.1,1.7 65.9,5 65.6,12.6 L65.6,12.6 Z" id="Shape"></path>
            </g>
            <g id="Group" transform="translate(19.000000, 15.000000)" fill="#93D1B6" sketch:type="MSShapeGroup">
                <path d="M255.7,33.9 C258.5,46.6 264.4,50.5 267.6,51.7 C264.1,48.3 258.2,40.7 255.8,26.3 C254,15.6 248.1,8.1 242.6,3.2 C243.5,4.6 243,5.1 240.3,3.7 C232.8,-0.2 224.9,0.2 224.9,0.2 C224.9,0.2 228.9,0.2 236.1,3.4 C243.4,6.6 251.7,16.1 255.7,33.9 L255.7,33.9 Z" id="Shape"></path>
                <path d="M268.2,67.1 C278.4,70.3 284.2,73.6 287.4,76.2 C287.6,76.9 287.9,77.7 288,78.4 C291.5,96.6 295,118.6 299,124.1 C300,125.4 300.5,126.9 300.6,128.2 C302.4,129.5 303.4,130.7 304,131.6 C304.8,131.9 305.5,132.2 306.2,132.5 C306.1,131 305.7,129.7 305.4,129 C305.1,128.3 304.9,127.6 304.5,126.8 C298,111.8 293.3,97.1 292.3,83.1 C291.3,69.1 282.8,61.4 265.6,58.7 C261.8,58.5 257.4,58.5 252.5,58.9 C252.5,58.9 271.2,59.7 281.5,68.3 C251.7,55.9 219.1,64.8 219.1,64.8 C219.1,64.8 246.2,60.3 268.2,67.1 L268.2,67.1 Z" id="Shape"></path>
                <path d="M118,133.9 C113.7,129.8 113.1,127.1 113.1,127.1 C113.1,127.1 113.6,131 115.4,135.1 C116.1,134.7 117,134.3 118,133.9 L118,133.9 Z" id="Shape"></path>
                <path d="M327.8,251.5 C325.2,231.7 313.3,219.8 312.6,219.2 C313.1,219.7 320.9,227.6 325.6,246.5 C330.4,266.1 321.9,294.5 321.9,294.5 C321.9,294.5 330.4,271.9 327.8,251.5 L327.8,251.5 Z" id="Shape"></path>
                <path d="M323.5,271.1 C324,266.1 324.2,256.1 320.5,244.6 C316.2,231 306.3,221.9 303,219.1 C302.9,219.1 302.9,219.2 302.8,219.2 C305,221.4 309.7,226.8 315.6,237.4 C323.9,252.4 322.9,274.9 322.9,274.9 C322.9,274.9 323.2,273.5 323.5,271.1 L323.5,271.1 Z" id="Shape"></path>
                <path d="M298.1,222.3 L298.1,222.3 C299.7,223.7 309.5,232.2 315.2,247.8 C315.2,247.9 315.3,248 315.3,248.2 L315.3,248.2 L315.3,248.2 C321.3,265.1 320.7,282.5 320.7,282.5 C320.7,282.5 322.6,261.3 317,246 C311.9,231.8 300.1,223.5 298.1,222.3 L298.1,222.3 Z" id="Shape"></path>
                <path d="M276.5,255.3 C276.5,255.3 290,277.7 293.8,299 C297.6,320.2 292.8,347.7 292.8,347.7 C292.8,347.7 300,326.2 297,301.5 C294,276.8 276.5,255.3 276.5,255.3 L276.5,255.3 Z" id="Shape"></path>
                <path d="M311.2,247.2 C312.4,251.3 314,258.9 314,269.9 C314,279.4 311.1,288.7 308.5,295.2 C311.2,289 314.3,280.7 315.1,273.6 C316.2,264.4 313.1,253 311.2,247.2 L311.2,247.2 Z" id="Shape"></path>
                <path d="M96.8,262.6 C94.8,239.9 108.2,208.4 108.2,208.4 C108.2,208.4 95,234.1 95.9,258.9 C95.6,265.5 95.7,272.7 96.8,278.2 C99.5,291.8 108.7,301.4 108.7,301.4 C108.7,301.4 104.5,295.5 101.1,283.9 C99.4,278.9 97.7,272 96.8,262.6 L96.8,262.6 Z" id="Shape"></path>
                <path d="M107,285.8 C107,285.8 96.3,255.3 111.5,211.3 C111.5,211.3 102.6,228.8 101.5,250.8 C100.4,272.8 107,285.8 107,285.8 L107,285.8 Z" id="Shape"></path>
                <path id="Shape" d="M132.3,298.4 L132.3,298.2 C132.3,298.2 132.3,298.2 132.3,298.3 L132.3,298.4 L132.3,298.4 Z"></path>
                <path d="M136.3,276.9 C137.4,273.2 138.6,269.3 139.9,265.5 C138.5,269.5 137.3,273.3 136.3,276.9 L136.3,276.9 Z" id="Shape"></path>
                <path d="M140.9,263 C145.9,250.8 154.3,241.6 158.6,237.4 C159.2,235.2 160.2,233.6 160.6,233 L160.5,233 C159.5,233.9 158.6,234.8 157.7,235.7 L158.3,233.9 C158.3,233.9 146.5,247 138.5,264.4 C130.5,281.8 129.1,294.5 129.1,294.5 C129.1,294.5 132.7,277.4 141.8,260.5 C141.5,261.3 141.2,262.2 140.9,263 L140.9,263 Z" id="Shape"></path>
                <path d="M152.2,238.8 C152.2,238.8 140,251.5 132.7,270.1 C125.4,288.8 124.7,312.9 124.7,312.9 C124.7,312.9 127.1,286.2 134.2,269.7 C141.3,253.3 152.2,238.8 152.2,238.8 L152.2,238.8 Z" id="Shape"></path>
                <path d="M130.4,365.6 C130.4,365.6 129.7,344.6 132.9,331.9 C136.1,319.2 137.7,319.2 137.7,319.2 C137.7,319.2 137.9,314.5 139.2,306.9 C139.2,306.9 132.4,321.4 130.7,333.7 C129,346.1 130.4,365.6 130.4,365.6 L130.4,365.6 Z" id="Shape"></path>
                <path d="M348.5,207.3 C347.1,204.6 344.1,199.9 338.3,195.4 C335.5,193.2 333,191.7 330.9,190.5 C330.9,191.4 330.9,192.1 330.8,192.7 C332.5,193.3 334.3,194.1 336.1,195.2 C342.2,199.1 347.3,205.7 348.5,207.3 L348.5,207.3 Z" id="Shape"></path>
                <path d="M372.8,262.8 C374,263.4 389.5,271.8 397.2,284.2 C399.2,287.4 401.2,291.4 402.9,295.5 C410.4,308.2 414.5,319.8 419.8,325 C429.4,334.6 436.6,334.5 436.6,334.5 C436.6,334.5 434.9,333.6 432.4,331.6 C426.8,327.4 417,319 412.7,308 C406.6,292 403.4,279 376.5,262.5 C349.6,246 345.2,230.8 345.2,230.8 L345.2,230.8 C339.2,222.5 335.7,215.3 335.7,215.3 C335.7,215.3 344,242.1 372.8,262.8 L372.8,262.8 Z" id="Shape"></path>
                <path d="M368.2,261.6 C365.8,260 363.4,258.3 361.2,256.5 L361.2,256.5 L361.2,256.5 C356.7,253 352.4,248.9 348,242.9 C348,242.9 359.3,261.4 379.7,273.4 C380.8,274.1 382,274.8 383.1,275.7 C370.3,267 369.3,269.7 354.7,256.3 C354.7,256.3 361.7,266.4 378.4,276.6 C395.1,286.8 404.6,314.3 404.6,314.3 C404.6,314.3 402.6,301.4 395.6,289.6 C406.4,305.5 412.6,325.3 412.6,325.3 C412.6,325.3 412.3,323.7 411.8,321.2 C411.7,320.7 408.6,309.8 398.8,292.5 C391.7,280.5 377,268.3 368.2,261.6 L368.2,261.6 Z" id="Shape"></path>
                <path d="M403.3,296.6 C408.1,308.2 411.4,320.5 411.5,321.2 C410.3,315.8 407.8,306.1 403.3,296.6 L403.3,296.6 Z" id="Shape"></path>
                <path d="M335.4,338.5 C335.4,338.5 332.4,361.4 345.5,374.5 C358.6,387.6 371.7,387 371.7,387 C371.7,387 345.3,384.5 338.8,353.8 C337.1,348.8 336.1,343.2 335.6,339.4 L335.4,338.5 L335.4,338.5 Z" id="Shape"></path>
                <path d="M341.7,299 C342,298.4 342.3,297.9 342.6,297.3 C350.5,282.2 350.2,265.7 341.3,254.4 C341.3,254.4 353.1,273.4 338.5,298.6 C323.9,323.8 314.3,353.1 314.3,353.1 C314.3,353.1 330.5,316.9 340.5,300.9 C340.9,300.2 341.3,299.6 341.7,299 L341.7,299 Z" id="Shape"></path>
                <path d="M310.2,283.4 C310.2,283.4 317.1,248.7 292.5,225.5 C291.7,225.9 290.9,226.4 290.1,226.8 C313.4,248.3 310.2,283.4 310.2,283.4 L310.2,283.4 Z" id="Shape"></path>
                <path d="M148.7,231.5 C142.8,237.9 138.2,245.2 134.7,252.3 C138.4,245.5 143.4,238.4 150.1,231.9 C149.6,231.8 149.2,231.7 148.7,231.5 L148.7,231.5 Z" id="Shape"></path>
                <path id="Shape" d="M124.5,282.3 C124.4,283 124.3,283.4 124.3,283.4 C124.3,283.4 124.4,283.1 124.5,282.7 L124.5,282.7 L124.5,282.3 L124.5,282.3 Z"></path>
                <path d="M81.5,292.3 C71.4,266.5 82.3,247.6 85.7,242.6 C85.8,242.4 85.9,242.2 86,241.9 C86,241.9 62,268.6 89.2,311.9 C112.9,349.7 110.7,370.2 109.8,374.9 C115.9,350.3 93.1,322.2 81.5,292.3 L81.5,292.3 Z" id="Shape"></path>
                <path d="M79.8,242.6 C79.8,242.6 61.8,268.1 80.3,301.1 C98.8,334.1 105.5,362.1 105.5,362.1 C105.5,362.1 102.8,341.2 87.7,310.6 C72.7,280 69.5,265.9 79.8,242.6 L79.8,242.6 Z" id="Shape"></path>
                <path d="M21.5,298.5 C28.6,274.7 39.9,265.3 56.3,258.7 C72.7,252 81.2,232.7 81.2,232.7 C81.2,232.7 71.4,251.3 50.7,258.9 C30,266.5 17.2,298.2 14.4,310.4 C11.6,322.6 0.2,332.4 0.2,332.4 C0.2,332.4 0.5,332.4 1,332.3 C1,332.2 14.5,322.2 21.5,298.5 L21.5,298.5 Z" id="Shape"></path>
                <path d="M33.2,336.5 C18.7,340.1 9.1,352.6 9.1,352.6 C9.1,352.6 18.1,342.5 36.4,339.7 C54.6,336.8 70.9,341.3 70.9,341.3 C70.9,341.3 47.7,332.9 33.2,336.5 L33.2,336.5 Z" id="Shape"></path>
                <path d="M378.8,352.5 C369.5,354.6 362.5,352.6 357.5,349.3 C353.8,347.6 350,345.1 346.3,341.3 C346.3,341.3 352.2,356.1 369.4,356.1 C386.6,356.1 391.2,350.9 401,350.9 C410.8,350.9 416.9,353.7 416.9,353.7 C416.9,353.7 414.5,351.7 409.6,350.4 C402.2,349.6 391.4,349.6 378.8,352.5 L378.8,352.5 Z" id="Shape"></path>
                <path d="M386,325 C372.5,325 370.8,334.5 370.8,334.5 C370.8,334.5 373.7,327 387.1,327 C400.5,327 412.2,332 412.2,332 C412.2,332 399.5,325 386,325 L386,325 Z" id="Shape"></path>
            </g>
            <g id="Group" transform="translate(160.000000, 239.000000)" fill="#995324" sketch:type="MSShapeGroup">
                <path d="M87.5,3.1 L87,2.6 C86.6,2.9 86.2,3.2 85.7,3.5 C83.4,4.9 81.2,4.8 79.7,4.5 L79.3,4.5 L79.3,4.5 C79.4,4.5 82.5,5.7 87.5,3.1 L87.5,3.1 Z" id="Shape"></path>
                <path d="M110.1,12 C109,11.3 108.4,10.6 108.4,10.6 L108.4,10.6 C107.7,10.2 107.1,9.7 106.5,9.1 L103.1,9.1 C101.7,9.1 100.3,9 99,8.8 C99.6,9.5 100.3,10.1 101.1,10.6 C104,12.5 107.7,12.4 110.1,12 L110.1,12 Z" id="Shape"></path>
                <path id="Shape" d="M85.2,0.4 C85.2,0.3 85.1,0.3 85.1,0.2 C84.9,0.5 84.8,0.7 84.8,0.8 C84.9,0.7 85.1,0.5 85.2,0.4 L85.2,0.4 Z"></path>
                <path d="M25.2,18.1 C26.7,16 29,13.9 32.2,14.6 C36.6,15.6 39.9,13.7 43.3,9.1 L42.2,9.1 L38.7,9.1 C37.7,10 36.6,10.8 35.3,11.3 C34.6,11.6 33.4,11.5 31.8,11.2 L31.8,11.2 C31.8,11.2 27.9,10.7 25.2,13.6 C25.1,13.7 25,13.9 24.9,14 C24.9,14.2 24.6,15.9 25.2,18.1 L25.2,18.1 Z" id="Shape"></path>
                <path d="M26.2,33.2 C32.4,35.1 33.3,41.4 33.3,41.4 C33.4,40.1 33.4,37.4 32.4,34.2 C31.2,30.3 28.1,28.5 27.3,28 C27.3,28 27.2,28 27.2,27.9 L27.1,27.9 L27.1,27.9 C25.7,27.1 24.2,26.1 22.9,24.7 C20.2,27.3 14.3,33.7 6.8,47.2 C6.5,47.8 6.1,48.4 5.8,49 C11.2,39.6 20,31.3 26.2,33.2 L26.2,33.2 Z" id="Shape"></path>
                <path d="M63,36.8 C61.4,34.6 60.3,32.8 60.3,32.8 C60.3,32.8 57.5,32.8 55,27.3 C52.4,21.8 49.2,23.1 47.5,25.9 C45.8,28.7 50.1,32.1 50.1,32.1 C50.1,32.1 40.6,30.1 40.6,22 C40.1,23.8 39.6,28.1 44.3,32 C50.5,37.2 54.1,33.6 51.5,30.9 C48.8,28.2 52,24.7 56.2,32 C60.4,39.3 67,39.4 67,39.4 C65.8,39 64,38.2 63,36.8 L63,36.8 Z" id="Shape"></path>
                <path d="M64,39.7 C64,39.7 64.3,40.3 64.8,40.9 L64,39.7 L64,39.7 Z" id="Shape"></path>
                <path d="M79.6,73.5 C78.7,73.4 77,72.8 75.6,71 C73.5,68.3 80.9,41.9 80.9,41.9 L80.9,41.9 C80.6,42.5 80.1,43.3 79.4,44.3 C77,47.5 74.9,64.4 74.9,64.4 C74.9,64.4 75,62.9 75.1,60.7 C74.6,65.3 73.8,69.8 72.6,69.8 L72.6,69.8 C72.3,67.1 71.8,63.1 71.2,59.2 C71.2,63.4 70.9,67.2 70.9,67.2 L70.5,64.1 L70.5,64.4 C70.5,64.4 68.4,47.5 66,44.3 C63.6,41.1 64,39.7 64,39.7 C64,39.7 60.9,43.1 64.8,48 C68.7,52.9 73.3,72.8 66.7,73.5 L66.6,73.5 C68.7,73.3 70.9,73.2 73.1,73.2 C75.2,73.2 77.4,73.3 79.6,73.5 L79.6,73.5 Z" id="Shape"></path>
                <path d="M95.1,32.1 C95.1,32.1 99.4,28.6 97.7,25.9 C96,23.2 92.8,21.8 90.2,27.3 C87.6,32.8 84.9,32.8 84.9,32.8 C84.9,32.8 84.2,34 83.2,35.5 L83.2,35.5 C83.2,35.5 87.2,36.4 89.8,32.2 C92.4,28 96,27.3 95.1,30.1 C94.2,32.9 92.2,33.9 92.2,33.9 C92.2,33.9 102.2,33.3 103.7,26.1 L103.7,26.1 C101.2,30.8 95.1,32.1 95.1,32.1 L95.1,32.1 Z" id="Shape"></path>
                <path d="M10.2,75.5 C10,76.1 9.9,76.8 9.7,77.4 C33.7,80.3 46.9,75.7 62.3,73.9 L62.3,73.9 C62.3,73.9 60,74.1 41.4,75.9 C33.5,76.6 26.5,76.4 21.2,76 C15.6,76.3 12.1,75.9 10.2,75.5 L10.2,75.5 Z" id="Shape"></path>
                <path d="M25,70.5 C28.8,70.2 32.7,69.6 36.4,68.9 C36.4,68.9 24.7,69.5 18.4,67.8 C12.2,66.2 20.1,51.7 20.4,51.1 C18,55.4 14.9,61.5 12.4,68.5 C13.8,69.8 17.2,71.2 25,70.5 L25,70.5 Z" id="Shape"></path>
                <path d="M9.3,57.2 C5.9,66.3 3.3,64.4 6.9,56.6 C9.2,51.8 11.7,48.3 13.9,45.9 C6.4,53.5 0.6,65.6 3.3,66.9 C6.8,68.7 8.4,62.1 11.3,54.7 C14.2,47.3 20.5,40.9 20.5,40.9 C20.5,40.9 13.8,45.2 9.3,57.2 L9.3,57.2 Z" id="Shape"></path>
                <path d="M46.4,136.7 C38.9,135.1 28,135.3 15.5,125.1 C3.8,115.5 0.9,105.5 0.6,104.2 C1.5,109.9 3.3,114.6 5.4,118.4 C5.6,118.6 26.4,143.3 42.8,140.6 C43.4,140.5 44,140.4 44.7,140.3 L44.7,140.3 C49.9,139.7 55.1,139.9 59.7,140.5 L59.7,140.5 C59.7,140.5 53.9,138.4 46.4,136.7 L46.4,136.7 Z" id="Shape"></path>
                <path d="M14.5,117.1 C13.5,117.3 12.7,117 12.4,116.6 C16.9,124.6 38.5,133.5 49,135.2 C52.1,135.7 54.6,136 56.7,136.1 C51.5,135.8 45.7,134 34.9,127.4 C20.4,118.5 17.3,116.6 14.5,117.1 L14.5,117.1 Z" id="Shape"></path>
                <path id="Shape" d="M57,136.1 C61.8,136.3 64,135.7 64,135.7 L64,135.7 C63.4,135.8 62.7,135.9 62.1,136 C60.3,136.1 58.7,136.2 57,136.1 L57,136.1 Z"></path>
                <path d="M129.2,130.1 C130.2,129.2 131.2,128.5 132.2,127.8 C140.3,124.2 130.6,136.9 120.8,139.1 C111,141.3 96.8,139.9 96.8,139.9 C96.8,139.9 105.8,143.3 121.6,141.5 C137.3,139.8 141.9,124.5 141.9,124.4 C142.4,121.8 143.1,118.5 143.6,114.4 L140.9,117 C129.1,120.2 127.4,130.5 115.9,132.6 C110.7,133.6 106.2,133.2 102.8,132.6 L102.8,132.6 C102.8,132.6 120.1,137.9 129.2,130.1 L129.2,130.1 Z M135.8,125.7 L132.3,127.7 C133.5,126.9 134.7,126.3 135.8,125.7 L135.8,125.7 Z" id="Shape"></path>
                <path d="M61.3,142.6 C57.2,142.3 52.7,142.1 48.6,142.5 C53.8,144.9 64,148.7 78.1,149.8 C99.4,151.5 107.6,144.5 107.6,144.5 L107.6,144.5 C105.4,144 103.5,143.4 101.9,142.8 C99.7,143.8 95.4,145.3 87.4,146.7 C78.1,148.2 67.2,144.8 61.3,142.6 L61.3,142.6 Z" id="Shape"></path>
                <path d="M22.2,104.7 C13.9,100.5 9.1,96.9 9.1,96.9 C9.9,103.6 11.1,108.1 9.8,108.1 C9.4,108.1 8.8,107.6 8.3,106.8 C11.5,112.2 15.7,110.1 14.4,105.9 C13.4,102.7 19.9,104.6 24.4,106.2 C22.9,105.2 22.2,104.7 22.2,104.7 L22.2,104.7 L22.2,104.7 Z" id="Shape"></path>
                <path d="M138.5,109.1 C137.1,109.1 138.6,104 139.3,96.5 C138.4,97.2 136.5,98.6 133.6,100.4 C133.6,100.4 139.9,100.8 135.1,105.6 C130.7,110 136.8,112.7 139.9,107.9 C139.8,107.9 139.8,108 139.8,108 C139.4,108.7 138.9,109.1 138.5,109.1 L138.5,109.1 Z" id="Shape"></path>
                <path d="M138.3,77.4 C138.2,77 138.1,76.6 138,76.2 C137.7,75.1 137.4,74 137.1,73 C130.8,74.4 123.4,73.7 116.5,72.3 C119.6,73.1 123.6,74.5 123.6,76.2 C123.6,79 99.5,76.2 99.2,76.2 C111.5,78.3 124.2,80.1 138.3,77.4 L138.3,77.4 Z" id="Shape"></path>
                <path id="Shape" d="M113,71.5 L113,71.5 L113,71.5 L113,71.5 L113,71.5 Z"></path>
                <path d="M141.1,68.3 L141.6,69.3 C141.4,68.7 141.2,68.4 141.1,68.3 L141.1,68.3 Z" id="Shape"></path>
                <path d="M122,24.8 C120.7,26.1 119.3,27.1 117.9,27.9 L117.9,27.9 C117.9,27.9 117.9,27.9 117.8,27.9 C117.8,27.9 117.7,27.9 117.7,28 C117,28.4 114.8,29.8 113.4,32.5 C113.9,32.1 121.6,26.1 132.8,44.3 C144.3,63.1 141.1,68.3 141.1,68.3 L151.1,85.1 C151.1,85.1 148.3,65.6 137.9,47.1 C130.6,34 124.8,27.5 122,24.8 L122,24.8 Z" id="Shape"></path>
            </g>
            <g id="Group" transform="translate(19.000000, 8.000000)" fill="#FFE284" sketch:type="MSShapeGroup">
                <path d="M292.5,90.1 C293.5,104.1 298.2,118.8 304.7,133.8 C305,134.6 305.3,135.3 305.6,136 C305.8,136.7 306.3,138.1 306.4,139.5 C310.8,141.3 314,142.9 315.9,143.9 C316.2,143.5 316.4,143 316.6,142.6 C320.1,135.1 319.3,126.7 319.3,126.7 C319.3,126.7 318,137.8 311.9,138.3 C310.6,132.1 301.4,126.2 298.5,107.1 C295.1,85.4 295.4,67.6 266,65.8 C283,68.4 291.5,76.2 292.5,90.1 L292.5,90.1 Z" id="Shape"></path>
                <path d="M255.8,33.3 C258.2,47.7 264.1,55.3 267.6,58.7 C268.9,59.2 269.7,59.2 269.7,59.2 C269.7,59.2 264.7,56 258,29.2 C251.3,2.4 229,0.9 229,0.9 C234.9,2.5 241,7.7 242.6,10.2 C248.1,15.1 254.1,22.6 255.8,33.3 L255.8,33.3 Z" id="Shape"></path>
                <path d="M348.5,214.3 C348.7,214.5 348.8,214.7 348.8,214.7 C348.8,214.7 343.6,200.9 331,195 C331,195.9 331,196.8 330.9,197.6 C333,198.7 335.5,200.3 338.3,202.5 C344.2,206.9 347.2,211.6 348.5,214.3 L348.5,214.3 Z" id="Shape"></path>
                <path d="M376.5,269.5 C403.3,286 406.5,299 412.7,315 C416.9,326 426.7,334.4 432.4,338.6 C426.9,334.4 417.5,325.3 413,310.1 C406.3,287.9 386.2,270.1 367.5,259.4 C361,255.7 355.2,250 350.4,244.3 L350.4,244.3 L350.4,244.2 C348.6,242.1 347,239.9 345.5,237.8 L345.5,237.8 C345.2,237.8 349.7,253 376.5,269.5 L376.5,269.5 Z" id="Shape"></path>
                <path d="M372.8,269.8 C373.3,270.2 373.8,270.5 374.3,270.9 C380.2,275 385.1,279.4 389.3,284 C381.2,277.1 374.4,272.9 368.2,268.7 C377,275.4 391.7,287.6 398.5,299.6 C408.3,316.8 411.4,327.8 411.5,328.3 L411.5,328.3 C411.3,327.7 408,315.3 403.3,303.7 C403,303.1 402.7,302.5 402.4,301.9 C402.5,302.1 402.7,302.4 402.8,302.6 C401.1,298.5 399.1,294.5 397.1,291.3 C389.4,278.8 373.9,270.4 372.8,269.8 L372.8,269.8 Z" id="Shape"></path>
                <path d="M320.5,251.6 C324.2,263.1 323.9,273.1 323.5,278.1 C324.3,271.3 325.1,257 320.5,246.3 C315.6,235.1 306.9,228.4 303.2,226 L303.1,226.1 C306.3,228.9 316.2,238 320.5,251.6 L320.5,251.6 Z" id="Shape"></path>
                <path d="M312.5,226.1 L312.5,226.1 C313.2,226.8 325.2,238.6 327.7,258.5 C330.3,278.9 321.8,301.5 321.8,301.5 C321.8,301.5 333.3,273.5 329,255.2 C324.7,236.8 312.5,226.1 312.5,226.1 L312.5,226.1 Z" id="Shape"></path>
                <path d="M347.8,344.2 C347.8,344.2 354.1,357.7 370.2,359.1 C365.9,359 361.7,358.2 357.5,356.3 C362.6,359.6 369.6,361.6 378.8,359.5 C391.4,356.6 402.2,356.6 409.5,357.3 C405.6,356.2 400.1,355.5 393.1,356.5 C388.9,357.1 384.7,357.9 380.5,358.5 C404.3,353.6 413.7,356.8 413.7,356.8 C413.7,356.8 402.1,352.1 380.7,356.7 C359.4,361.2 347.8,344.2 347.8,344.2 L347.8,344.2 Z" id="Shape"></path>
                <path d="M336.2,348.5 L335.7,346.4 C336.2,350.3 337.2,355.8 338.9,360.8 C338.7,360.1 338.6,359.4 338.5,358.6 C340.3,362.9 343.1,367.3 347.6,370.7 C359.3,379.4 371.2,377.8 371.2,377.8 C371.2,377.8 344.3,377.7 336.2,348.5 L336.2,348.5 Z" id="Shape"></path>
                <path d="M348.8,271.5 C348.8,271.5 355.3,286.5 345,302.3 C334.7,318.1 329.2,334.3 329.2,334.3 C329.2,334.3 338.2,316.8 347.4,303.1 C356.5,289.5 352.7,278.1 348.8,271.5 L348.8,271.5 Z" id="Shape"></path>
                <path id="Shape" d="M315.3,255.1 C315.3,255.1 315.3,255.2 315.3,255.1 L315.3,255.1 L315.3,255.1 L315.3,255.1 Z"></path>
                <path d="M311.2,254.2 C313.1,260 316.2,271.4 315.2,280.6 C314.4,287.6 311.3,295.9 308.6,302.2 C306.4,307.7 304.3,311.3 304.3,311.3 C304.3,311.3 314.1,297.5 316.8,283.6 C319.5,269.8 310,250.4 310,250.4 C310,250.4 310.5,251.7 311.2,254.2 L311.2,254.2 Z" id="Shape"></path>
                <path d="M280.5,261.9 C280.5,261.9 295.8,283.6 298.3,300.4 C300.8,317.2 299.1,333.1 299.1,333.1 C299.1,333.1 303.9,317.4 300.8,299.4 C297.6,281.4 280.5,261.9 280.5,261.9 L280.5,261.9 Z" id="Shape"></path>
                <path d="M140.9,270 C140.6,270.8 140.2,271.7 139.9,272.5 C138.6,276.3 137.4,280.2 136.3,283.9 C133.3,295.2 132.4,304 132.3,305.2 C132.3,305.2 132.3,305.2 132.3,305.1 C132.7,302.8 136.9,281.7 145.3,266.7 C154.1,250.9 158.1,252.8 158.1,248.2 C158.1,246.8 158.3,245.5 158.7,244.3 C154.3,248.6 145.9,257.8 140.9,270 L140.9,270 Z" id="Shape"></path>
                <path d="M151.9,239.3 C151.3,239.2 150.7,239.1 150.1,238.9 C143.4,245.4 138.4,252.5 134.7,259.3 C127.9,272.9 125.2,285.6 124.5,289.3 L124.5,289.7 L124.5,289.7 C125.5,284.8 132.2,257.2 151.9,239.3 L151.9,239.3 Z" id="Shape"></path>
                <path d="M96.8,269.6 C97.6,278.9 99.3,285.9 101,290.8 C100.8,290.2 100.6,289.6 100.5,288.9 C103.4,295.3 106.5,297.5 106.5,297.5 C106.5,297.5 97.3,283.8 99.5,257.5 C101.7,231.2 108.2,215.3 108.2,215.3 C108.2,215.3 94.8,247 96.8,269.6 L96.8,269.6 Z" id="Shape"></path>
                <path d="M85.7,249.6 C82.3,254.6 71.4,273.5 81.5,299.3 C93.1,329.1 115.9,357.3 109.8,381.9 C109.7,382.6 109.6,382.9 109.6,382.9 C109.6,382.9 118.4,368.8 100.8,335.3 C83.4,302.1 70.7,280.3 85.7,249.6 L85.7,249.6 Z" id="Shape"></path>
                <path d="M81.2,239.6 C81.2,239.6 72.8,259 56.3,265.6 C39.9,272.3 28.5,281.7 21.5,305.4 C14.4,329.2 1,339.1 1,339.1 C4.1,338.5 15.7,334.9 20.9,314.1 C26.9,289.9 35.2,277.4 50.2,270.8 C65.2,264.1 76.6,254.7 81.2,239.6 L81.2,239.6 Z" id="Shape"></path>
                <path d="M226.8,234.5 C227.3,234.2 227.7,233.9 228.1,233.6 C227.9,233.4 227.7,233.2 227.6,233 C225,235.2 222.6,235.6 220.9,235.5 C222.3,235.8 224.5,235.9 226.8,234.5 L226.8,234.5 Z" id="Shape"></path>
                <path d="M207.5,224 C207.3,223.8 207,223.5 206.5,223.2 C206,223.6 205.6,224.1 205.2,224.6 C206.5,224.8 207.3,224.2 207.5,224 L207.5,224 Z" id="Shape"></path>
                <path d="M208.2,235.1 C206.9,235.6 203.5,236.3 199.8,233.2 C199.5,233.5 199.2,233.9 198.9,234.2 C199.2,234.4 199.5,234.6 199.9,234.8 C204.3,237.3 207.3,235.7 208.2,235.1 L208.2,235.1 Z" id="Shape"></path>
                <path d="M235.5,245.9 C228.2,242.7 225.2,252.6 225.2,252.6 C227.1,247.8 230.7,245.9 234.2,246.9 C238.9,248.2 240,249.8 240,249.8 C240,249.8 245.6,250.7 245.6,252.9 C245.6,254.5 245.2,255.9 244.6,257 L244.6,257 C244.6,257 246.8,254.9 246.3,251.4 C245.8,247.9 242.8,249.1 235.5,245.9 L235.5,245.9 Z" id="Shape"></path>
                <path d="M251.1,243 C252.1,243.6 253.5,244.2 255.1,244 C258.5,243.6 262.4,249.5 259.6,253.8 C256.8,258 252,259.8 252,259.8 C253.2,259.5 254.5,259.1 255.7,258.6 C258.5,257.4 262.9,254 262.9,249.7 C262.8,249.1 262.6,248.4 262.3,247.7 C261.6,246.1 260.7,244.7 259.7,243.7 C257.2,242 254.3,242.4 254.3,242.4 L254.3,242.4 C252.7,242.7 251.4,242.8 250.8,242.5 C250.3,242.3 249.8,242 249.4,241.7 L249.4,241.7 C249.4,241.6 250.1,242.4 251.1,243 L251.1,243 Z" id="Shape"></path>
                <path d="M193.3,246.6 L193.5,246.9 C198,246 202.6,249.8 203.2,258.4 C203.8,266.7 207.3,269.7 208.6,270.6 C208.9,270.8 209.1,270.9 209.1,270.9 C209.1,270.9 205,264.2 204,253.9 C203,243.6 193.3,246.6 193.3,246.6 L193.3,246.6 Z" id="Shape"></path>
                <path d="M208.3,273.6 C210.6,274.3 211.4,292.5 211.5,295.1 L211.9,298.2 C211.9,298.2 212.2,294.3 212.2,290.2 C212.2,289 212.2,287.8 212.1,286.7 C211.8,281.5 211.7,273.2 208.7,272.6 C205.8,272 204.9,270.8 204.9,270.8 L206,272.3 C206.6,272.7 207.3,273.3 208.3,273.6 L208.3,273.6 Z" id="Shape"></path>
                <path d="M151.9,304 C151.7,304.7 151.5,305.5 151.3,306.3 C151.3,306.4 151.3,306.5 151.2,306.5 C153.1,306.9 156.6,307.3 162.2,306.9 C164.7,306.7 167.7,306.4 171.2,305.8 C187.3,303.2 195.1,295.9 195.1,295.9 C195.1,295.9 169.5,308 151.9,304 L151.9,304 Z" id="Shape"></path>
                <path d="M276.6,299.7 C276.2,298.7 275.8,297.7 275.4,296.7 C273.9,297.9 270.9,299.6 266.1,299.6 C258.7,299.6 235,296 235,296 C235,296 250.4,300.2 264.1,301.5 C271.7,302.2 275,300.9 276.6,299.7 L276.6,299.7 Z" id="Shape"></path>
                <path d="M264.7,276.4 C264.7,276.4 278.5,289.9 282.8,307.6 C286.5,322.5 283.4,335.3 280.8,339 C280.8,339 280.8,339 280.9,338.9 C281.6,338.3 286.5,333.6 285.1,313.6 C285,312.6 284.9,311.6 284.8,310.7 C282.1,290.5 264.7,276.4 264.7,276.4 L264.7,276.4 Z" id="Shape"></path>
                <path d="M267.3,280.3 C265.8,277.8 264.8,276.3 264.8,276.3 L267.3,280.3 L267.3,280.3 Z" id="Shape"></path>
                <path d="M180.3,260.5 C180.3,260.5 175.6,259.4 170.2,255.2 C167.8,253.3 166.6,251 166.2,249.1 C165.6,246.9 165.9,245.3 165.9,245.1 C165.5,245.7 165,246.4 164.7,247.2 C162.6,252.7 168.3,257.1 171.5,258.6 C174.4,259.9 178.3,260.5 179.1,260.6 C179.8,260.5 180.3,260.5 180.3,260.5 L180.3,260.5 Z" id="Shape"></path>
                <path d="M215.8,349 L215,349 C214.4,349 213.8,349 213.2,348.9 C192.2,348.4 174.4,341.5 163.1,335.7 L163.1,335.7 C163.1,335.7 163.9,336.2 165.3,337.1 C172,341.2 193.2,352.7 218.2,351.2 C248.4,349.4 264,337.2 264,337.2 L264,337.2 C252.4,343 235.6,349 215.8,349 L215.8,349 L215.8,349 Z" id="Shape"></path>
                <path d="M177.3,356.5 C188.7,363.6 197.3,365.7 203.9,365 C209.4,364.4 214.1,362.3 215.6,361.5 C215.5,361.5 196.9,366.1 177.3,353.2 C157.7,340.3 154.2,345.9 154.2,345.9 C154.5,345.8 155,345.7 155.5,345.7 C161.1,345.8 165.9,349.4 177.3,356.5 L177.3,356.5 Z" id="Shape"></path>
                <path d="M262,355.5 C255.6,361.9 245.2,362.4 240.5,362.2 C245.9,362.8 257,363.1 264,357 C273.5,348.7 277.9,345.4 284.7,345.3 C284.8,344.6 284.9,343.8 285,343 C279.5,342.6 269.8,347.7 262,355.5 L262,355.5 Z" id="Shape"></path>
                <path d="M147.4,306.6 C151.8,288.8 165.5,275.4 165.5,275.4 C165.5,275.4 150,286.9 144.2,307.4 C140,322.2 145.3,332.2 148.6,336.6 C146.3,331.6 144.1,320 147.4,306.6 L147.4,306.6 Z" id="Shape"></path>
                <path d="M252.4,271.4 C251.8,268.8 251,263.9 253,260.7 C252.3,260.8 251.6,260.8 251,260.8 C250.8,261.8 250.6,263.5 250.6,265.6 C250.6,267.9 251.8,270.3 252.4,271.4 L252.4,271.4 Z" id="Shape"></path>
            </g>
            <g id="Group" transform="translate(159.000000, 145.000000)" fill="#808080" sketch:type="MSShapeGroup">
                <path d="M15.4,92.1 L15.4,3 C11.1,3.6 6.9,4.2 3,4.9 L0.3,86.5 C5.4,89 10.7,90.9 15.4,92.1 L15.4,92.1 Z" id="Shape"></path>
                <path d="M46.5,78.9 L46.5,1 C45.7,1 45,1.1 44.2,1.1 L44.2,81.4 C45,80.6 45.8,79.8 46.5,78.9 L46.5,78.9 Z" id="Shape"></path>
                <path d="M55.1,69 C58.6,65.1 61.8,62.7 64.6,61.2 L64.5,61.2 C70.5,57.2 79.2,57.9 84.7,62.4 C84.7,62.4 84.7,62.4 84.8,62.5 C87.1,64 89.6,66.1 92.2,69 C100.2,78.1 107.9,88.4 117.2,91.9 L117.4,1.9 C105.9,1.2 89.3,0.3 73.6,0.3 C66.1,0.3 58.5,0.5 51.4,0.7 L50.6,74.2 C52.1,72.5 53.6,70.8 55.1,69 L55.1,69 Z" id="Shape"></path>
                <path d="M130.5,92.4 L130.5,2.9 C129.6,2.8 128.4,2.7 126.9,2.6 L126.4,93.1 C127.7,92.9 129.1,92.7 130.5,92.4 L130.5,92.4 Z" id="Shape"></path>
            </g>
            <g id="Group" transform="translate(120.000000, 133.000000)" fill="#2BA4AA" sketch:type="MSShapeGroup">
                <path d="M0.6,37.8 L1.5,61.6 L2,37.4 L2.6,59.4 L2.7,37.8 L3.6,58.5 L4.5,36.9 L5.2,59.5 L6,36.1 L6.6,62.6 L7.3,33.3 L7.3,32.7 C5.5,33.5 0.7,35.6 0.6,37.8 L0.6,37.8 Z" id="Shape"></path>
                <path d="M112.7,1.8 C113.2,1.8 157.7,0.9 181.1,6.7 C184,7.4 186.6,8.1 189.2,8.9 C169.2,0.4 113.7,0.2 112.8,0.2 C111.8,0.2 56.3,0.4 36.4,8.9 C38.9,8.2 41.6,7.4 44.5,6.7 C67.7,0.9 112.2,1.8 112.7,1.8 L112.7,1.8 Z" id="Shape"></path>
                <path d="M219.4,36.1 L220.2,59.5 L220.9,37 C220.8,35.1 219.3,33.7 218.1,33 L218.1,33.5 L218.8,62.8 L219.4,36.1 L219.4,36.1 Z" id="Shape"></path>
                <path d="M94.2,99.9 C88.8,105.9 84.1,109.6 79.7,111.9 L85.6,111.9 C90.4,111.9 95.4,106.9 101.9,97.1 C103.7,94.4 105.3,92.8 106.7,91.8 L106.7,91.7 C108.6,90 112.7,88.9 116.7,90.6 C117,90.7 117.3,90.9 117.6,91.1 C117.8,91.2 117.9,91.2 118.1,91.3 C118.3,91.4 118.6,91.6 118.8,91.8 C120.2,92.8 121.8,94.5 123.5,97 C130,106.7 135,111.8 139.8,111.8 L145.7,111.8 C141.3,109.5 136.7,105.9 131.2,99.8 C116.9,83.9 113.3,82.9 112.7,82.9 L112.7,82.9 L112.7,82.9 C112.7,82.9 112.7,82.9 112.6,82.9 C112.1,83 108.5,83.9 94.2,99.9 L94.2,99.9 Z" id="Shape"></path>
            </g>
            <g id="Group" transform="translate(133.000000, 159.000000)" fill="#2F593F" sketch:type="MSShapeGroup">
                <path d="M2.8,23.6 L2.8,1.3 L1.7,18.1 L1.4,7.2 C0.9,18.4 0.1,39.1 0.7,48.7 C1,53.7 1.8,57.2 3.6,60.3 L14.2,69.1 L3.8,59.2 L16.1,70.1 L5.4,60 L17.8,70.4 L15.2,68.1 C13.1,66.4 11.2,64.8 9.7,63.2 L5.5,59.5 L8.7,62.2 C7.6,60.9 6.6,59.7 5.9,58.5 C2.9,53.6 3.8,35.7 4.8,20.7 C4.9,19.1 5,17.6 5.2,16.1 L5.2,16.3 L5.7,0.2 L4.1,20.9 L4.1,0.7 L2.8,23.6 L2.8,23.6 Z" id="Shape"></path>
                <path d="M37.4,82.2 L25,77 C29.6,79.4 33.7,81.1 37.4,82.2 L37.4,82.2 Z" id="Shape"></path>
                <path d="M12.8,69.4 L3.7,60.5 C5.5,63.5 8.4,66.2 12.8,69.4 L12.8,69.4 Z" id="Shape"></path>
                <path d="M101.4,49.6 C101.4,49.6 109.3,51 119.9,63 C130.5,75 134.7,82.2 146.4,83.6 C150.7,84.1 155.8,84 161.9,82.3 L174.3,76.4 L158.9,82 L172.8,76 L158.9,81 L163.2,78.8 C156.4,81.1 150.6,81.8 145.3,80.7 C137.8,79 133.2,74.7 125.8,66.5 C118.4,58.3 111.7,50.8 107.3,49 C104.7,47.9 103.2,47.5 102.3,47.3 C102.1,47.6 102.4,48 103.8,48.5 C107.8,49.9 113.5,56 113.5,56 C113.5,56 107.5,50.3 101.4,49.3 L101.4,49.6 L101.4,49.6 Z" id="Shape"></path>
                <path d="M195.7,60.4 L186.6,69.3 C191,66.2 193.9,63.5 195.7,60.4 L195.7,60.4 Z" id="Shape"></path>
                <path d="M184.2,68.1 L181.6,70.4 L194,60 L183.1,70.3 L195.4,59.4 L185,69.3 L195.6,60.5 C197.4,57.4 198.2,53.9 198.5,48.9 C199.1,39.2 198.3,18.6 197.8,7.4 L197.5,18.3 L196.4,1.5 L196.4,23.8 L195.2,0.9 L195.2,21.1 L193.6,0.4 L194.1,16.5 L194.1,16.3 C194.2,17.8 194.3,19.3 194.5,20.9 C195.5,35.9 196.5,53.8 193.5,58.7 C192.8,59.8 191.9,61.1 190.7,62.4 L193.9,59.7 L189.7,63.4 C188.2,64.7 186.3,66.4 184.2,68.1 L184.2,68.1 Z" id="Shape"></path>
                <path d="M53,83.5 C64.7,82.1 68.9,74.9 79.5,62.9 C90.1,50.9 98,49.5 98,49.5 L98,49.1 C91.7,50.1 84.8,56.5 84.8,56.5 C84.8,56.5 89.8,51.3 93.8,49.5 C97.6,47.8 96.2,47.4 96.1,47.4 C95.1,47.7 93.9,48.1 92.1,48.8 C87.8,50.6 81,58.1 73.6,66.3 C66.2,74.5 61.6,78.8 54.1,80.5 C48.8,81.7 43,80.9 36.2,78.6 L40.5,80.8 L26.6,75.8 L40.5,81.8 L25.1,76.2 L37.5,82.1 C43.6,83.9 48.7,84 53,83.5 L53,83.5 Z" id="Shape"></path>
                <path d="M162,82.2 C165.7,81.2 169.8,79.4 174.4,77 L162,82.2 L162,82.2 Z" id="Shape"></path>
            </g>
            <g id="Group" transform="translate(128.000000, 138.000000)" fill="#009444" sketch:type="MSShapeGroup">
                <path d="M102,4.2 C134.3,4.2 155.2,6 168.7,8.1 C162.9,5.1 146.1,-0.6 102.4,1.1 C61.2,2.7 37.1,5.8 26.2,7.5 C15.3,11.4 15.9,15.2 15.9,15.2 C15.9,15.2 30.3,4.2 102,4.2 L102,4.2 Z" id="Shape"></path>
                <path d="M60.4,108.2 C61.1,108.1 71.2,106.7 79.2,96.6 C87.5,86.1 89.9,83 89.9,83 C93.8,76.8 102.2,73.1 102.2,73.1 C102.2,73.1 92.2,75.9 82,89.3 C73.3,100.6 68.7,105.8 53.8,106.4 C41.4,106.9 23.8,97.5 14.5,90.2 L14.5,90.2 C4.1,84.6 2.2,76.5 1.9,63.9 C1.7,52.4 3.9,21.6 4.3,16.3 L2.4,16.9 C2.4,16.9 0.6,37.4 0.6,58.4 C0.6,79.1 1.3,83.8 11.4,90.8 C24.2,99.7 36.1,108.5 52.7,108.5 C55.7,108.5 58.2,108.4 60.4,108.2 L60.4,108.2 Z" id="Shape"></path>
                <path d="M206.7,66.6 C206.6,50.6 205.4,22.1 205.2,16.3 L203,15.6 C203,15.6 205.5,26.6 205.5,50 C205.5,73.4 206.1,79 199.7,86.2 C198.5,87.5 196.8,89 194.7,90.7 L194.7,90.7 C194.7,90.7 187.5,96.8 181.7,99.9 C175.9,103 166.9,108.7 152,107.5 C137.1,106.3 128.2,97.1 125.8,91.6 C123.3,86.1 119.7,83.2 119.7,83.2 C114.8,77.9 111,76.2 111,76.2 C111,76.2 118.2,80.8 120.6,86.7 C116,84 108.6,77.5 108.6,77.5 C108.6,77.5 115.1,84 126.1,95 C126.6,95.6 127.2,96.2 127.9,96.8 L127.9,96.8 L127.9,96.8 C128.6,97.5 129.5,98.2 130.5,99.1 C138.1,105.4 140.2,108.7 156.8,108.7 C173.5,108.7 185.3,99.9 198.1,91 C198.5,90.7 198.9,90.4 199.3,90.1 C200,89.5 206.8,83.7 206.7,66.6 L206.7,66.6 Z" id="Shape"></path>
            </g>
            <path d="M139,210.8 C139.7,219 149,226.5 159.3,231.6 L162,150 C159.7,150.4 157.4,150.9 155.3,151.4 C148.1,153.2 141,156.8 139.7,168.4 L139.7,168.8 C139.7,169.5 139.6,170.2 139.6,170.9 C138.8,183.2 138.2,201 139,210.8 L139,210.8 Z" id="Shape" fill="#333333" sketch:type="MSShapeGroup"></path>
            <g id="Group" transform="translate(174.000000, 145.000000)" fill="#E6E6E6" sketch:type="MSShapeGroup">
                <path d="M152.4,65.8 C153.3,55.3 152.4,35.7 151.7,23.3 C150.5,13.5 145.3,9.4 139.3,7.3 L137,6.6 C136.7,6.5 136.4,6.4 136.1,6.4 C130.4,5.1 123.9,4 117,3.1 C116.9,3.1 116.4,3 115.5,3 L115.5,92.5 C129.7,89.4 151.4,78.5 152.4,65.8 L152.4,65.8 Z" id="Shape"></path>
                <path d="M110.1,93.2 C110.5,93.2 111,93.1 111.5,93.1 L112,2.6 C109.6,2.4 106.3,2.2 102.6,1.9 L102.4,91.9 C104.8,92.9 107.3,93.3 110.1,93.2 L110.1,93.2 Z" id="Shape"></path>
                <path d="M7.3,93.2 C15.7,93.7 22.7,88.3 29.2,81.4 L29.2,1.1 C13.8,1.8 2.3,2.8 2,2.8 C1.4,2.9 0.9,2.9 0.3,3 L0.3,92.1 C2.9,92.7 5.3,93.1 7.3,93.2 L7.3,93.2 Z" id="Shape"></path>
                <path d="M35.6,74.3 L36.4,0.8 C34.7,0.9 33.1,0.9 31.5,1 L31.5,78.9 C32.9,77.4 34.2,75.8 35.6,74.3 L35.6,74.3 Z" id="Shape"></path>
            </g>
            <g id="Group" transform="translate(118.000000, 137.000000)" fill="#F9F071" sketch:type="MSShapeGroup">
                <path d="M178.7,9.1 C197.7,12.1 201.7,15.6 201.7,15.6 C201.7,15.6 200.2,-0.9 111.9,0.3 C68.3,0.9 46.8,4.8 36.2,8.5 C47.1,6.8 71.2,3.7 112.4,2.1 C156,0.5 172.9,6.1 178.7,9.1 L178.7,9.1 Z" id="Shape"></path>
                <path d="M135.8,92.4 C138.3,97.9 147.2,107.1 162,108.3 C176.8,109.5 185.8,103.8 191.7,100.7 C197.5,97.6 204.7,91.5 204.7,91.5 L204.7,91.5 C195.3,98.7 178,107.8 165.8,107.3 C150.9,106.7 146.2,101.5 137.6,90.2 C127.4,76.8 117.4,74 117.4,74 C117.4,74 125.8,77.7 129.7,83.9 C129.6,84 133.3,86.9 135.8,92.4 L135.8,92.4 Z" id="Shape"></path>
                <path d="M217.1,17.9 L215.1,17.2 C215.3,23 216.5,51.5 216.6,67.5 C216.7,84.6 209.9,90.4 209.3,90.9 C218.3,84.3 218.9,79.2 218.9,59.4 C219,38.4 217.1,17.9 217.1,17.9 L217.1,17.9 Z" id="Shape"></path>
                <path d="M11.9,64.9 C12.1,77.5 14.1,85.7 24.5,91.2 L24.5,91.2 C22.6,89.7 21,88.3 20,87.1 C13.6,79.9 14.2,74.3 14.2,50.9 C14.2,27.5 16.7,16.5 16.7,16.5 L14.4,17.3 C13.9,22.6 11.7,53.3 11.9,64.9 L11.9,64.9 Z" id="Shape"></path>
                <path d="M1.5,33.1 L1.5,54.2 L2.6,33.7 C2.6,31.5 7.5,29.4 9.2,28.7 L9.2,27 C9.2,27 7.5,27.7 5.8,28.8 L5.8,28.8 C5.2,29.2 4.6,29.7 4,30.2 C1.9,32.2 0.7,33.8 0.7,33.8 L0.1,51.4 L1.5,33.1 L1.5,33.1 Z" id="Shape"></path>
                <path d="M222.9,32.9 L222.9,32.9 L222.9,33.1 L223.8,54.4 L224.7,33.7 L224.8,55.3 L225.4,33.3 L225.9,57.5 L226.8,33.7 L227.9,54.2 L227.9,33.1 L229.3,51.3 L228.7,33.7 C228.7,33.7 227.5,32.1 225.4,30.1 C224.9,29.6 224.2,29.1 223.6,28.7 L223.6,28.7 C221.9,27.6 220.2,26.9 220.2,26.9 L220.2,28.7 C221.3,29.7 222.8,31 222.9,32.9 L222.9,32.9 Z" id="Shape"></path>
                <path d="M70.4,109.2 C80.3,108.2 82.8,105.1 89.1,99.9 C90.1,99.1 90.9,98.3 91.7,97.6 L91.7,97.6 L91.7,97.6 L93.5,95.8 L111,78.3 C111,78.3 103.6,84.8 99,87.5 C101.4,81.6 108.6,77 108.6,77 C108.6,77 104.8,78.7 99.9,84 C99.9,84 97.5,87.1 89.2,97.6 C81.2,107.7 71.1,109.1 70.4,109.2 L70.4,109.2 Z" id="Shape"></path>
            </g>
            <g id="Group" transform="translate(170.000000, 316.000000)" fill="#AA9945" sketch:type="MSShapeGroup">
                <path id="Shape" d="M103.5,29.9 C103.6,29.9 103.7,29.8 103.7,29.8 L103.8,29.8 C103.8,29.8 103.8,29.7 103.7,29.7 L103.5,29.9 L103.5,29.9 Z"></path>
                <path d="M117.8,12.2 C121.4,11.3 124,10.3 125.8,9.5 C125.9,9.4 126.1,9.4 126.2,9.3 L126.3,9.3 C128,8.6 127.9,7.4 127.4,6.5 C126,7.3 123.7,8.5 119.8,9.8 C119.3,7.1 119.8,5.2 120.2,4.1 L119.6,4.1 C118.9,4.2 118.2,4.2 117.4,4.3 C116.5,4.5 116.7,6.5 116.8,6.9 C117.3,8.3 117.6,10.2 117.8,12.2 L117.8,12.2 Z" id="Shape"></path>
                <path d="M41.4,14.9 C36.5,14.5 32.1,14.1 28.2,13.6 L28.2,13.6 C28.2,14.2 28.2,14.8 28.1,15.4 C32.4,15.9 37.3,16.3 42.9,16.6 C43,14.8 43.1,13 43.2,11.3 L43.2,11.3 C43.2,10.9 43.3,10.5 43.3,10.2 L43.3,9.7 C43.3,9.3 43.4,8.8 43.4,8.4 C43.4,8.1 43.5,7.7 43.5,7.4 L43.5,6.9 C43.5,6.4 43.6,6 43.6,5.6 L43.6,5.6 C43.6,5.1 44,1.3 42.2,1.4 C40.6,1.6 39.1,1.7 37.6,1.9 C38.9,1.8 41.8,2.9 41.4,14.9 L41.4,14.9 Z" id="Shape"></path>
                <path d="M43,20.4 L43,18.7 C37.5,18.3 32.6,17.9 28.2,17.3 L28.2,18.7 L28.2,18.7 C32.1,19.1 36.4,19.5 41.3,19.8 C41.1,29.6 41.6,33.7 40.5,35 C40.8,35.1 41.2,35.2 41.5,35.3 C41.6,35.3 44,35.4 43.8,32.3 C43.4,29.2 43,25.1 43,20.4 L43,20.4 Z" id="Shape"></path>
                <path d="M26.8,27.4 C26.7,26.8 26.6,26.1 26.6,25.5 L26.6,25.5 C26.4,23.4 26.2,21.1 26.2,18.4 L26.2,18.4 L26.2,18.4 L26.2,18 L26.2,17 C20.1,16.2 15.2,15.2 11.3,14.2 L11.3,16 L11.3,16 C14.5,16.7 18.3,17.4 22.9,18 C22.8,20.8 22.9,23.3 23.3,25.1 C23.9,27.6 22.3,28.3 20.9,28.5 C22,29 23.1,29.4 24.3,29.9 C24.4,29.9 24.5,30 24.7,30 C25.7,30.2 27,30.2 26.8,27.7 L26.8,27.4 L26.8,27.4 Z" id="Shape"></path>
                <path d="M127.8,13.1 C128.3,11.3 126.2,11.4 126.2,11.4 L126.2,11.4 C124.2,12.1 121.5,13 117.9,13.9 L117.9,15.2 L117.9,15.4 L117.9,15.4 L117.9,15.5 C117.9,16.7 117.8,17.9 117.7,19 C117.6,20.8 118.7,21.1 119.6,21 C119.9,19.7 120.4,17.4 120.4,14.9 C123.9,14.1 126.4,13.5 127.8,13.1 L127.8,13.1 Z" id="Shape"></path>
                <path d="M87.2,21.2 L87.2,19.8 C91.6,19.4 95.8,19 99.6,18.5 L99.6,17.3 C95.2,17.9 90.3,18.4 84.8,18.7 L84.8,20 L84.8,20 L84.8,20.3 C84.8,25.1 84.4,29.3 83.9,32.3 C83.8,35.4 86.3,35.2 86.3,35.2 L85.9,35.4 C86.4,35.3 86.9,35.2 87.3,35 C85.4,33.8 87.2,28.4 87.2,21.2 L87.2,21.2 Z" id="Shape"></path>
                <path d="M8.5,9.5 C4.5,8.3 2,7.2 0.7,6.6 C0.6,7.4 0.8,8.2 2,9 L2,9 C3.7,9.9 6.2,11 9.9,12.1 C10,10.8 10.2,9.6 10.5,8.5 L10.5,8.4 C10.6,7.9 10.7,7.4 10.8,7 L10.8,7 C10.8,7 11.2,4.3 10.1,4.3 L10.1,4.3 L9.8,4.3 L9.8,4.3 L9.8,4.3 C9.4,4.3 9,4.2 8.5,4.2 C8.5,4.2 8.5,4.2 8.4,4.2 C8.5,5.1 8.6,7.2 8.5,9.5 L8.5,9.5 Z" id="Shape"></path>
                <path d="M83.2,20.2 L83.2,18.9 C77.4,19.2 71,19.4 64,19.4 L64,20.7 L64,34 C64,34.7 64.2,38.6 66.9,38.5 C67.7,38.5 68.5,38.4 69.3,38.4 C67,36.3 65.7,29 65.5,20.8 C71.7,20.7 77.7,20.5 83.2,20.2 L83.2,20.2 Z" id="Shape"></path>
                <path d="M83.3,16.5 L83.3,15.2 L83.3,15.2 C78,15.5 72.1,15.6 65.5,15.6 C65.5,14.6 65.5,13.5 65.6,12.5 C66,4.9 68.1,1.6 69.7,0.2 C68.6,0.2 67.5,0.1 66.4,0.1 C64.3,0.2 64.1,3.9 64.1,4.8 L64.1,15.5 L64.1,16.8 C71.2,17 77.6,16.8 83.3,16.5 L83.3,16.5 Z" id="Shape"></path>
                <path d="M100.7,8 C100.7,8.1 100.7,8.2 100.8,8.3 C100.9,8.7 101,9.2 101,9.7 L101,9.8 C101.2,10.9 101.3,12.2 101.4,13.6 L101.4,13.6 L101.4,13.6 C101.4,14.1 101.5,14.5 101.5,15 C107.6,14.3 112.5,13.4 116.4,12.5 C116.4,11.9 116.3,11.3 116.2,10.7 L116.2,10.7 C112.9,11.6 108.9,12.4 103.9,13.2 C103.8,12.1 103.7,11 103.5,10 C103.1,7 103.8,5.1 104.6,4 C104,3.9 103.4,3.9 102.9,3.8 L103,3.8 L103.2,3.8 L103,3.8 L102.8,3.8 C102.6,3.8 102.5,3.8 102.3,3.7 C101.3,3.6 99.9,4 100.4,6.6 C100.5,7.1 100.6,7.6 100.7,8 L100.7,8 Z" id="Shape"></path>
                <path d="M84.1,6.4 C84.1,6.6 84.1,6.8 84.2,7 C84.2,7.3 84.2,7.5 84.3,7.8 C84.4,8.8 84.5,9.9 84.6,11.1 C84.6,11.1 84.6,11.1 84.6,11.2 C84.7,12.5 84.8,13.8 84.8,15.2 L84.8,15.2 L84.8,15.2 C84.8,15.6 84.8,16 84.9,16.5 C90.5,16.2 95.4,15.8 99.7,15.3 L99.7,13.9 C95.9,14.4 91.7,14.8 87,15.1 C86.6,10.4 85.9,6.8 85.9,4.9 C85.9,3.3 86.7,2.2 87.5,1.5 C86.8,1.4 86,1.3 85.2,1.3 C84,1.7 84.1,4.1 84.1,5.1 C84,5.5 84.1,6 84.1,6.4 L84.1,6.4 Z" id="Shape"></path>
                <path d="M103.2,26.4 C103.8,24.2 104.1,21.1 104.1,17.9 C108.8,17.2 112.9,16.4 116.5,15.7 L116.5,14.2 C112.5,15.2 107.6,16.1 101.6,17 L101.6,17.9 C101.6,21.7 101.3,24.9 100.9,27.5 C100.9,27.5 100.9,27.5 100.9,27.6 C100.5,31 103.2,29.9 103.7,29.7 C103.2,29.1 102.8,28 103.2,26.4 L103.2,26.4 Z" id="Shape"></path>
                <path d="M44.5,18.7 L44.5,20 C49.4,20.3 54.9,20.5 60.9,20.6 C60.1,29.9 58.3,35.8 57.5,38.1 C58.3,38.2 59.1,38.2 59.9,38.3 C60.2,38.3 62.4,38.1 62.4,33.6 L62.4,20.6 L62.4,19.3 C55.8,19.3 49.9,19.1 44.5,18.7 L44.5,18.7 Z" id="Shape"></path>
                <path d="M9.8,15.7 L9.8,15.7 L9.8,15.2 L9.8,13.9 C6.7,13.1 4.3,12.3 2.5,11.5 L2.5,11.5 C2.5,11.5 3.77475828e-14,11.2 0.2,12.7 C1.8,13.4 4.2,14.3 7.9,15.2 L7.9,15.3 C6.7,20.4 1.1,14.6 1.1,14.6 C1.4,15.1 1.6,15.4 1.8,15.6 C3,17.2 4.7,18.8 7,20.6 C7.3,20.7 10.3,22.1 10.1,18.9 L10.1,18.9 C9.9,17.9 9.8,16.8 9.8,15.7 L9.8,15.7 L9.8,15.7 Z" id="Shape"></path>
                <path d="M24.5,7.5 C24.1,9 23.7,10.8 23.4,12.8 C18.7,12 14.8,11.2 11.6,10.4 C11.5,11.1 11.4,11.8 11.4,12.4 C15.2,13.4 20,14.3 26.2,15.1 C26.2,14.5 26.3,13.9 26.3,13.3 L26.3,13.3 L26.3,13.3 C26.4,12.7 26.4,12.1 26.5,11.5 L26.5,11.3 C26.6,10.8 26.6,10.4 26.7,10 C26.7,9.9 26.7,9.7 26.8,9.6 C26.9,9.2 26.9,8.9 27,8.5 C27,8.4 27,8.2 27.1,8.1 C27.2,7.7 27.3,7.2 27.4,6.8 L27.4,6.8 C27.8,4.5 26.8,3.9 25.8,3.9 C25.4,4 25,4 24.6,4 L24.6,4 L24.6,4 C23.7,4.1 22.8,4.2 21.9,4.2 C23.7,4.5 25.1,5.3 24.5,7.5 L24.5,7.5 Z" id="Shape"></path>
                <path d="M61.2,14.6 L61.2,15.7 C55.1,15.6 49.5,15.4 44.5,15.1 L44.5,16.6 C49.8,16.8 55.8,17 62.4,17 L62.4,15.7 L62.4,5.5 C62.4,1.8 61.5,0.6 60.7,0.3 C59.6,0.3 58.6,0.3 57.5,0.4 C59,0.7 61.5,3 61.2,14.6 L61.2,14.6 Z" id="Shape"></path>
            </g>
            <g id="Group" fill="#17302E" sketch:type="MSShapeGroup">
                <path id="Shape" d="M133.3,340.2 L133.5,342 C133.5,341.9 133.5,341.4 133.3,340.2 L133.3,340.2 Z"></path>
                <path d="M429.6,348.9 C450.3,357.4 464.4,351.1 464.4,351.1 C464.4,351.1 446.4,344.4 438.7,323.9 C431,303.4 424.5,281.2 394.2,265.9 C363.9,250.6 354.6,220.6 354.6,220.6 C358,217.6 371.1,228 371.1,228 C371.1,228 367.2,208.2 349.9,200.7 C350,189.4 349.7,170.9 348,168.2 C347.3,167.1 346.2,166 344.9,164.9 C343.2,161.5 340.7,158.6 337.5,158 C337.4,157.5 337.4,157 337.3,156.4 C338.6,153.8 340.1,149.6 340.7,143.7 C341.9,132.3 335.7,119.9 335.7,119.9 C335.7,119.9 337.3,124.3 337.3,129.1 C337.3,133.9 334.8,138.4 335.6,133.3 C336.4,128.2 335.6,123.3 335.6,123.3 C335.6,123.3 334.8,127.3 333.5,128.5 C332.2,129.7 330.2,131.3 330.2,131.3 C330.2,131.3 324.9,126 322.7,110.6 C320.5,95.3 318,82.1 305,74.4 C292,66.7 289.5,55.1 278.8,26.1 C274.7,15 266.8,8.8 258.6,5.5 C258.6,5.5 258.5,5.5 258.5,5.4 C248.7,1.1 228.5,-3.3 209.7,4.4 L209.7,4.4 C200.6,7.5 191.4,13.7 186.8,26 C176.1,55 173.6,66.7 160.6,74.3 C147.6,82 145.1,95.1 142.9,110.5 C140.7,125.8 135.4,131.2 135.4,131.2 C135.4,131.2 133.3,129.7 132.1,128.4 C130.9,127.1 130,123.2 130,123.2 C130,123.2 129.2,128.1 130,133.2 C130.8,138.3 128.3,133.7 128.3,129 C128.3,124.3 129.9,119.8 129.9,119.8 C129.9,119.8 123.7,132.2 124.9,143.6 C125.5,149.3 126.9,153.3 128.1,156 C128,156.6 127.9,157.2 127.8,157.8 C124.4,158.4 121.8,161.4 120,165 C118.8,166 117.9,167 117.2,168 C116,170 115.5,180.1 115.3,189.9 C115.1,190.2 115,190.4 114.9,190.7 C115.3,192.2 115.4,193.6 115.2,195.1 C115.2,195.1 115.3,195.2 115.3,195.3 L115.3,200.4 C97.6,207.8 93.6,227.9 93.6,227.9 C93.6,227.9 106.7,217.5 110.1,220.5 C110.1,220.5 100.8,250.5 70.5,265.8 C40.2,281.1 33.7,303.3 26,323.8 C18.3,344.3 0.3,351 0.3,351 C0.3,351 14.5,357.3 35.1,348.8 C55.7,340.3 69.1,347.5 69.1,347.5 C69.1,347.5 49.1,344.2 34.9,355.8 C20.7,367.5 19.4,375.8 19.4,375.8 C19.4,375.8 30.4,365.1 55.7,372.3 C81,379.5 93,369.3 93,369.3 C93,369.3 83.8,380 72,382.5 C60.2,385 49.5,382.7 49.5,382.7 C49.5,382.7 70.8,392.8 94,385.5 C85.6,400.9 58.8,401.1 58.8,401.1 C58.8,401.1 82.6,407.6 102.3,403 C122,398.3 146.3,422.7 146.3,422.7 C146.3,422.7 134.8,409.2 136.1,383.4 C137.4,357.6 120.4,331.4 108.9,306.2 C97.4,281 113.9,257 113.9,257 C113.9,257 105.6,289.2 119.4,311 C129.8,327.4 132.4,336.5 133,340.1 L128.7,305.5 C128.7,305.5 137,316.8 140.2,333.5 C143.4,350.2 140,363.2 140,363.2 C140,363.2 145.6,356.8 147.1,349.5 C144.6,367.4 148.5,387.3 148.5,387.3 C148.5,387.3 154.4,369.3 171.9,369.5 C182.4,378.9 192,383.3 201.8,382.3 C205.9,384.8 217.9,391 239,391.9 C259.6,392.8 272,386.9 276.6,384.1 C278.2,384 279.9,383.9 281.7,383.6 C297.6,381 299.5,371.9 305.9,374 C313,379.3 315.6,387.4 315.6,387.4 C315.6,387.4 319.6,367.5 317,349.6 C318.4,356.9 324.1,363.3 324.1,363.3 C324.1,363.3 320.8,350.3 323.9,333.6 C327.1,316.9 335.4,305.6 335.4,305.6 L331.1,340.2 C331.7,336.6 334.3,327.5 344.7,311.1 C358.5,289.3 350.2,257.1 350.2,257.1 C350.2,257.1 366.7,281.1 355.2,306.3 C343.7,331.5 326.7,357.6 328,383.5 C329.3,409.3 317.8,422.8 317.8,422.8 C317.8,422.8 342.1,398.5 361.8,403.1 C381.5,407.8 405.3,401.2 405.3,401.2 C405.3,401.2 378.5,401 370.1,385.6 C393.3,392.8 414.6,382.8 414.6,382.8 C414.6,382.8 403.9,385.1 392.1,382.6 C380.3,380.1 371.1,369.4 371.1,369.4 C371.1,369.4 383.1,379.6 408.4,372.4 C433.7,365.2 444.7,375.9 444.7,375.9 C444.7,375.9 443.4,367.6 429.2,355.9 C415,344.2 395,347.6 395,347.6 C395,347.6 409,340.4 429.6,348.9 L429.6,348.9 Z M39.9,322.1 C34.7,342.9 23.1,346.5 20,347.1 C19.5,347.2 19.2,347.2 19.2,347.2 C19.2,347.2 30.5,337.4 33.4,325.2 C36.2,313 49,281.3 69.7,273.7 C90.4,266.1 100.2,247.5 100.2,247.5 C95.6,262.6 84.2,272 69.2,278.7 C54.2,285.4 45.9,297.9 39.9,322.1 L39.9,322.1 Z M55.3,354.6 C37.1,357.5 28,367.5 28,367.5 C28,367.5 37.6,355 52.1,351.4 C66.6,347.8 89.7,356.1 89.7,356.1 C89.7,356.1 73.6,351.7 55.3,354.6 L55.3,354.6 Z M99.3,316.1 C80.8,283.1 98.8,257.6 98.8,257.6 C88.6,280.8 91.7,295 106.8,325.6 C121.9,356.2 124.6,377.1 124.6,377.1 C124.6,377.1 117.8,349.1 99.3,316.1 L99.3,316.1 Z M119.8,343.4 C137.3,376.9 128.6,391 128.6,391 C128.6,391 128.7,390.7 128.8,390 C129.7,385.4 131.9,364.8 108.2,327 C81,283.7 105,257 105,257 C104.9,257.2 104.8,257.4 104.7,257.7 C89.7,288.3 102.4,310.1 119.8,343.4 L119.8,343.4 Z M338.2,165.9 L338.2,164.1 C338.2,164.1 339.9,164.8 341.6,165.9 L341.6,165.9 C342.2,166.3 342.8,166.8 343.4,167.3 C345.5,169.3 346.7,170.9 346.7,170.9 L347.3,188.5 L345.9,170.3 L345.9,191.4 L344.8,170.9 L343.9,194.7 L343.4,170.5 L342.8,192.5 L342.7,170.9 L341.8,191.6 L340.9,170.3 L340.9,170 L340.9,170.1 L340.2,192.6 L339.4,169.2 L338.8,195.7 L338.1,166.4 L338.1,165.9 L338.2,165.9 Z M259.4,18.7 C262.1,20.1 262.5,19.5 261.7,18.2 C260.1,15.7 254,10.5 248.1,8.9 C248.1,8.9 270.4,10.4 277.1,37.2 C283.8,64 288.8,67.2 288.8,67.2 C288.8,67.2 288,67.2 286.7,66.7 C283.5,65.5 277.7,61.6 274.8,48.9 C270.8,31.1 262.5,21.6 255.3,18.4 C248.1,15.2 244.1,15.2 244.1,15.2 C244.1,15.2 251.9,14.9 259.4,18.7 L259.4,18.7 Z M300.8,83.3 C290.5,74.7 271.8,73.9 271.8,73.9 C276.7,73.6 281.1,73.5 284.9,73.7 C314.3,75.5 314,93.4 317.4,115 C320.4,134.1 329.5,140 330.8,146.2 C336.9,145.8 338.2,134.6 338.2,134.6 C338.2,134.6 339,143 335.5,150.5 C335.3,151 335,151.4 334.8,151.8 C332.9,150.8 329.8,149.2 325.3,147.4 C324.6,147.1 323.9,146.8 323.1,146.5 C322.5,145.5 321.5,144.4 319.7,143.1 C319.6,141.7 319,140.3 318.1,139 C314.1,133.5 310.6,111.5 307.1,93.3 C306.9,92.5 306.7,91.8 306.5,91.1 C303.3,88.5 297.5,85.2 287.3,82 C265.3,75.2 238.5,79.7 238.5,79.7 C238.5,79.7 270.9,70.9 300.8,83.3 L300.8,83.3 Z M334.6,252.5 C328.7,241.8 324,236.5 321.8,234.3 C321.9,234.3 321.9,234.2 322,234.2 L322.1,234.1 C325.8,236.5 334.5,243.1 339.4,254.4 C344.1,265.1 343.2,279.4 342.4,286.2 C342.1,288.6 341.9,290.1 341.9,290.1 C341.9,290.1 342.9,267.5 334.6,252.5 L334.6,252.5 Z M327.3,228 C326.9,228.3 326.5,228.6 326.1,228.9 C313.3,237.8 301.4,246.6 284.8,246.6 C268.1,246.6 266.1,243.3 258.5,237 C257.5,236.2 256.7,235.4 255.9,234.7 L255.9,234.7 L255.9,234.7 L254.1,232.9 L236.6,215.4 C236.6,215.4 244,221.9 248.6,224.6 C246.2,218.7 239,214.1 239,214.1 C239,214.1 242.8,215.8 247.7,221.1 C243.8,214.9 235.4,211.2 235.4,211.2 C235.4,211.2 245.4,214 255.6,227.4 C264.3,238.7 268.9,243.9 283.8,244.5 C296,245 313.3,235.9 322.7,228.7 C324.8,227.1 326.5,225.5 327.7,224.2 C334.1,217 333.5,211.4 333.5,188 C333.5,164.6 331,153.6 331,153.6 L333.2,154.3 L335.2,155 C335.2,155 337,175.5 337,196.5 C337,216.2 336.4,221.4 327.3,228 L327.3,228 Z M158,235.3 L173.4,240.9 L159.5,234.9 L173.4,239.9 L169.1,237.7 C175.9,240 181.7,240.7 187,239.6 C194.5,237.9 199.1,233.6 206.5,225.4 C213.9,217.2 220.6,209.7 225,207.9 C226.8,207.2 228,206.7 229,206.5 C229.1,206.5 230.5,207 226.7,208.6 C222.7,210.3 217.7,215.6 217.7,215.6 C217.7,215.6 224.7,209.3 230.9,208.2 L230.9,208.6 C230.9,208.6 223,210 212.4,222 C201.8,234 197.6,241.2 185.9,242.6 C181.6,243.1 176.5,243 170.3,241.3 L158,235.3 L158,235.3 Z M170.4,241.2 C166.7,240.2 162.6,238.4 158,236 L170.4,241.2 L170.4,241.2 Z M232.6,215.9 L232.6,215.9 L232.6,215.9 C233.3,215.9 236.8,216.9 251.2,232.8 C256.6,238.8 261.3,242.5 265.7,244.8 L259.8,244.8 C255,244.8 250,239.8 243.5,230 C241.8,227.4 240.2,225.8 238.8,224.8 C238.6,224.6 238.3,224.4 238.1,224.3 C237.9,224.2 237.8,224.2 237.6,224.1 C237.3,223.9 237,223.8 236.7,223.6 C232.6,221.9 228.6,223 226.7,224.7 L226.7,224.8 C225.3,225.8 223.7,227.5 221.9,230.1 C215.4,239.8 210.4,244.9 205.6,244.9 L199.7,244.9 C204.1,242.6 208.8,239 214.2,232.9 C228.5,216.9 232.1,216 232.6,215.9 L232.6,215.9 Z M236.8,207.2 C235.4,206.7 235.2,206.3 235.3,206 C236.2,206.2 237.8,206.7 240.3,207.7 C244.6,209.5 251.4,217 258.8,225.2 C266.2,233.4 270.8,237.7 278.3,239.4 C283.6,240.6 289.4,239.8 296.2,237.5 L291.9,239.7 L305.8,234.7 L291.9,240.7 L307.3,235.1 L294.9,241 C288.7,242.8 283.7,242.8 279.4,242.3 C267.7,240.9 263.5,233.7 252.9,221.7 C242.3,209.7 234.4,208.3 234.4,208.3 L234.4,207.9 C240.5,208.9 246.5,214.6 246.5,214.6 C246.5,214.6 240.8,208.7 236.8,207.2 L236.8,207.2 Z M307.4,236 C302.8,238.4 298.7,240.2 295,241.2 L307.4,236 L307.4,236 Z M323.7,221 C324.8,219.7 325.8,218.5 326.5,217.3 C329.5,212.4 328.6,194.5 327.5,179.5 C327.4,177.9 327.3,176.4 327.1,174.9 L327.1,175.1 L326.6,159 L328.2,179.7 L328.2,159.5 L329.4,182.4 L329.4,160.1 L330.5,176.9 L330.8,166 C331.3,177.2 332.1,197.9 331.5,207.5 C331.2,212.5 330.4,216 328.6,219.1 L318,227.9 L328.4,218 L316.1,228.9 L327,219 L314.6,229.4 L317.2,227.1 C319.4,225.4 321.2,223.8 322.7,222.1 L326.9,218.4 L323.7,221 L323.7,221 Z M328.7,219.4 C326.9,222.5 324,225.2 319.6,228.3 L328.7,219.4 L328.7,219.4 Z M232.7,133.1 C233.6,133.1 289.2,133.3 309.1,141.8 C306.6,141.1 303.9,140.3 301,139.6 C277.6,133.8 233.2,134.7 232.6,134.7 C232.1,134.7 187.6,133.8 164.2,139.6 C161.3,140.3 158.7,141 156.1,141.8 C176.2,133.3 231.7,133.1 232.7,133.1 L232.7,133.1 Z M154.1,145.6 C164.7,141.8 186.2,137.9 229.8,137.4 C318.1,136.2 319.6,152.7 319.6,152.7 C319.6,152.7 315.6,149.1 296.6,146.2 C283.2,144.1 262.2,142.3 229.9,142.3 C158.2,142.3 143.8,153.3 143.8,153.3 C143.8,153.3 143.3,149.5 154.1,145.6 L154.1,145.6 Z M139.6,168.7 L139.6,168.3 C141,156.7 148,153.1 155.2,151.3 C157.3,150.8 159.6,150.4 161.9,149.9 C165.8,149.2 170,148.5 174.3,148 C174.9,147.9 175.4,147.9 176,147.8 C176.3,147.8 187.8,146.8 203.2,146.1 C204,146.1 204.7,146 205.5,146 C207.1,145.9 208.7,145.9 210.4,145.8 C217.5,145.5 225.1,145.4 232.6,145.4 C248.4,145.4 265,146.3 276.4,147 C280.2,147.2 283.4,147.5 285.8,147.7 C287.3,147.8 288.5,147.9 289.4,148 C290.3,148.1 290.8,148.1 290.9,148.1 C297.8,149 304.4,150.2 310,151.4 C310.3,151.5 310.6,151.6 310.9,151.6 L313.2,152.3 C319.2,154.4 324.4,158.5 325.6,168.3 C326.3,180.7 327.1,200.3 326.3,210.8 C325.3,223.5 303.6,234.4 289.4,237.4 C288,237.7 286.6,237.9 285.3,238.1 C284.8,238.1 284.4,238.2 283.9,238.2 C281.2,238.4 278.6,237.9 276.1,237 C266.8,233.5 259.1,223.2 251.1,214.1 C248.5,211.1 246,209.1 243.7,207.6 C243.7,207.6 243.7,207.6 243.6,207.5 C238.2,203 229.4,202.3 223.4,206.3 L223.5,206.3 C220.7,207.8 217.4,210.1 214,214.1 C212.5,215.8 211,217.6 209.4,219.4 C208.1,221 206.7,222.5 205.4,224 C204.6,224.8 203.9,225.7 203.1,226.5 C196.5,233.4 189.6,238.8 181.2,238.3 C179.2,238.2 176.8,237.8 174.2,237.2 C169.5,236.1 164.2,234.2 159.1,231.7 C148.8,226.6 139.4,219.2 138.8,210.9 C138,201.1 138.7,183.3 139.3,170.9 C139.5,170.1 139.6,169.4 139.6,168.7 L139.6,168.7 Z M138.6,159.2 L138.1,175.3 L138.1,175.1 C138,176.6 137.9,178.1 137.7,179.7 C136.6,194.7 135.7,212.6 138.8,217.5 C139.5,218.6 140.4,219.9 141.6,221.2 L138.4,218.5 L142.6,222.2 C144.1,223.8 146,225.5 148.1,227.1 L150.7,229.4 L138.4,219 L149.3,229.3 L137,218.4 L147.4,228.3 L136.8,219.5 C135,216.4 134.2,212.9 133.9,207.9 C133.3,198.2 134.1,177.6 134.6,166.4 L134.9,177.3 L136,160.5 L136,182.8 L137.2,159.9 L137.2,180.1 L138.6,159.2 L138.6,159.2 Z M145.8,228.4 C141.3,225.2 138.5,222.5 136.7,219.5 L145.8,228.4 L145.8,228.4 Z M137,148.9 C136,149.3 135.2,149.7 134.4,150.1 C132.6,146 132.1,142.1 132.1,142.1 C132.1,142.1 132.6,144.8 137,148.9 L137,148.9 Z M118.7,170.8 C118.7,170.8 119.9,169.2 122,167.2 C122.5,166.7 123.1,166.2 123.8,165.8 L123.8,165.8 C125.5,164.7 127.2,164 127.2,164 L127.2,165.7 L127.2,166.3 L126.5,195.6 L125.9,169.1 L125.1,192.5 L124.4,169.9 L123.5,191.5 L122.6,170.8 L122.5,192.4 L121.9,170.4 L121.4,194.6 L120.5,170.8 L119.4,191.3 L119.4,170.2 L118,188.4 L118.7,170.8 L118.7,170.8 Z M115.8,293.3 C114.7,287.8 114.6,280.6 114.9,274 C114,249.2 127.2,223.5 127.2,223.5 C127.2,223.5 120.7,239.4 118.5,265.7 C116.3,292 125.5,305.7 125.5,305.7 C125.5,305.7 122.4,303.5 119.5,297.1 C119.7,297.8 119.8,298.4 120,299 C123.4,310.7 127.6,316.5 127.6,316.5 C127.6,316.5 118.5,306.8 115.8,293.3 L115.8,293.3 Z M126,300.8 C126,300.8 119.4,287.8 120.5,265.8 C121.6,243.8 130.5,226.3 130.5,226.3 C115.4,270.2 126,300.8 126,300.8 L126,300.8 Z M139.4,228.8 C129.2,221.8 128.6,217.1 128.6,196.4 C128.6,175.4 130.4,154.9 130.4,154.9 L132.3,154.3 L134.6,153.5 C134.6,153.5 132.1,164.5 132.1,187.9 C132.1,211.3 131.5,216.9 137.9,224.1 C139,225.3 140.5,226.7 142.4,228.2 C151.7,235.5 169.3,244.9 181.7,244.4 C196.6,243.8 201.3,238.6 209.9,227.3 C220.1,213.9 230.1,211.1 230.1,211.1 C230.1,211.1 221.7,214.8 217.8,221 C222.7,215.7 226.5,214 226.5,214 C226.5,214 219.3,218.6 216.9,224.5 C221.5,221.8 228.9,215.3 228.9,215.3 L211.4,232.8 C210.9,233.4 210.3,234 209.6,234.6 L209.6,234.6 L209.6,234.6 C208.9,235.3 208,236 207,236.9 C200.8,242.1 198.2,245.2 188.3,246.2 C186.1,246.4 183.6,246.5 180.6,246.5 C164.1,246.5 152.2,237.7 139.4,228.8 L139.4,228.8 Z M143.3,298.4 C143.3,298.4 143.4,298 143.5,297.3 C144.2,293.6 146.9,280.9 153.7,267.3 C157.2,260.2 161.8,253 167.7,246.5 C168.2,246.6 168.6,246.8 169.1,246.9 C169.7,247.1 170.3,247.2 170.9,247.3 C151.2,265.2 144.5,292.8 143.5,297.6 C143.3,298.1 143.3,298.4 143.3,298.4 L143.3,298.4 Z M143.7,327.9 C143.7,327.9 144.4,303.7 151.7,285.1 C159,266.4 171.2,253.8 171.2,253.8 C171.2,253.8 160.3,268.3 153.2,284.8 C146.2,301.2 143.7,327.9 143.7,327.9 L143.7,327.9 Z M157.5,279.4 C165.5,262 177.3,248.9 177.3,248.9 L176.7,250.7 C177.6,249.8 178.6,248.9 179.5,248 L179.6,248 C179.2,248.6 178.3,250.3 177.6,252.4 C177.3,253.6 177,254.9 177,256.3 C177,260.9 173.1,259 164.2,274.8 C155.9,289.7 151.7,310.8 151.2,313.2 L151.2,313.4 L151.2,313.3 C151.3,312.1 152.2,303.3 155.2,292 C156.2,288.4 157.4,284.5 158.8,280.6 C159.1,279.8 159.4,278.9 159.8,278.1 C160.1,277.3 160.5,276.5 160.8,275.6 C151.7,292.5 148.1,309.6 148.1,309.6 C148.1,309.6 149.5,296.7 157.5,279.4 L157.5,279.4 Z M156.7,334.3 C156.7,334.3 155,334.3 151.9,347 C148.7,359.7 149.4,380.7 149.4,380.7 C149.4,380.7 148.1,361.2 149.7,348.9 C151.4,336.6 158.2,322.1 158.2,322.1 C156.9,329.6 156.7,334.3 156.7,334.3 L156.7,334.3 Z M301.1,307.3 C301.1,307.4 301.3,307.7 301.6,308.3 C302.2,309.7 303.1,312.9 303.9,318.7 C304,319.6 304.1,320.5 304.2,321.6 C304.6,325.5 304.8,330.3 304.8,336.3 C304.8,341.9 304.4,346.8 303.9,351 C303.8,351.8 303.7,352.5 303.6,353.3 C296.9,353.4 292.4,356.8 282.9,365 C275.8,371.2 264.8,370.8 259.4,370.2 C257.5,370 256.2,369.7 256.2,369.7 C256.2,369.7 256.4,369.8 256.9,370 C257.9,370.4 259.9,371.2 262.8,371.7 C266.2,372.3 270.7,372.7 275.9,371.7 C287.4,369.6 289.1,359.3 300.9,356.1 L303.6,353.5 C303,357.5 302.4,360.8 301.9,363.5 C301.9,363.6 297.3,378.9 281.6,380.6 C265.8,382.4 256.8,379 256.8,379 C256.8,379 258.6,380.4 262,381.8 C263.6,382.4 265.5,383 267.7,383.5 L267.7,383.5 C267.7,383.5 259.5,390.5 238.2,388.8 C224,387.7 213.9,383.9 208.7,381.5 C212.8,381.1 217.2,381.3 221.4,381.6 C229.3,382.3 236,383.6 236,383.6 C236,383.6 229.1,380.8 219.7,379.5 C215.1,378.9 210,378.6 204.7,379.3 L204.7,379.3 C204.1,379.4 203.5,379.5 202.8,379.6 C186.4,382.3 165.6,357.6 165.4,357.4 C163.3,353.6 161.4,348.9 160.6,343.2 C160.3,341 160.1,338.7 160.1,336.3 C160.1,313.9 163.5,307.7 163.8,307.3 L153.8,324.1 C153.8,324.1 156.5,305.9 166,287.9 C166.3,287.3 166.7,286.7 167,286.1 C174.5,272.7 180.4,266.2 183.1,263.6 C184.4,265 185.9,266.1 187.3,266.8 L187.3,266.8 L187.4,266.8 C187.4,266.8 187.5,266.8 187.5,266.9 C188.3,267.3 191.3,269.2 192.6,273.1 C193.6,276.3 193.6,279 193.5,280.3 C193.5,280.8 193.4,281.1 193.4,281.1 C193.4,281.1 194.5,278 194.6,274.6 L194.6,274.6 C194.7,272.5 194.4,270.3 193.3,268.6 C196.2,268.9 198.3,268.4 198.3,268.4 L198.1,268.4 C197.3,268.3 193.4,267.7 190.5,266.4 C187.3,265 181.6,260.6 183.7,255 C184.1,254.2 184.5,253.5 184.9,252.9 C185,252.8 185.1,252.6 185.2,252.5 C187.8,249.7 191.8,250.1 191.8,250.1 L191.8,250.1 C193.4,250.4 194.7,250.5 195.3,250.2 C196.6,249.6 197.7,248.9 198.7,248 L202.2,248 L203.3,248 C209.5,247.8 214.2,245.8 217.8,242.1 C218.1,241.8 218.4,241.4 218.7,241.1 C222.5,244.3 225.8,243.5 227.1,243 C227.5,242.9 227.7,242.7 227.7,242.7 C227.7,242.7 224.2,243.4 220,239.3 C221,237.9 222,236.3 222.8,234.5 C223.1,233.9 223.4,233.5 223.7,233 C223.8,232.8 224,232.6 224.2,232.3 C224.6,231.8 225,231.3 225.5,230.9 C226,231.2 226.3,231.5 226.5,231.7 L226.7,231.9 C226.7,231.9 226.5,231.4 225.9,230.6 C229.5,227.9 234.9,227.9 238.9,230.4 L238.7,230.6 L238.7,230.6 C238.1,231.3 237.9,231.8 237.9,231.8 C237.9,231.8 238.4,231.3 239.4,230.7 C240.4,231.4 241.3,232.4 242,233.5 C242.2,233.8 242.4,234.1 242.5,234.4 C243.3,236 244.1,237.5 245.1,238.9 C245.1,239 245.2,239 245.2,239.1 L244.8,239.5 C240.7,243.2 237.4,242.6 237.4,242.6 C237.4,242.6 238.2,243 239.4,243.2 L239.8,243.2 C241.5,243.3 243.9,243 246.5,240.7 C246.7,240.9 246.8,241.1 247,241.3 L247.5,241.8 C250.5,244.9 254.3,246.8 259,247.5 C260.3,247.7 261.7,247.8 263.1,247.8 L266.5,247.8 C267.1,248.3 267.7,248.9 268.4,249.3 C268.9,249.6 269.3,249.8 269.8,250.1 C270.5,250.4 271.7,250.3 273.3,250 L273.3,250 C273.3,250 276.2,249.7 278.7,251.3 C279.7,252.3 280.6,253.7 281.3,255.3 C281.6,256 281.8,256.7 281.9,257.3 C281.9,261.7 277.4,265 274.7,266.2 C273.5,266.7 272.2,267.1 271,267.4 C270.7,267.5 270.4,267.5 270.2,267.6 C268.4,268 267,268.2 267,268.2 C267,268.2 268.2,268.5 270.1,268.5 C270.7,268.5 271.4,268.5 272.1,268.4 C270.1,271.6 270.9,276.5 271.5,279.1 C271.8,280.2 272,280.9 272,280.9 C272,280.9 271.9,280.5 271.9,279.7 L271.9,279.7 C271.8,278.3 271.9,275.8 272.8,272.9 C273,272.3 273.2,271.7 273.5,271.2 C274.9,268.5 277.2,267.1 277.8,266.7 C277.8,266.7 277.9,266.7 277.9,266.6 L278,266.6 L278,266.6 C279.4,265.9 280.8,264.9 282.1,263.5 C284.9,266.2 290.7,272.7 298,285.8 C308.3,304.3 311.2,323.8 311.2,323.8 L301.1,307.3 L301.1,307.3 Z M311.9,362.6 C311.9,362.6 316.7,335.2 312.9,313.9 C309.1,292.7 295.6,270.2 295.6,270.2 C295.6,270.2 313.1,291.7 316.1,316.4 C319,341.1 311.9,362.6 311.9,362.6 L311.9,362.6 Z M318.1,341 C318.1,341 319.8,325.2 317.3,308.3 C314.8,291.5 299.5,269.8 299.5,269.8 C299.5,269.8 316.6,289.3 319.8,307.3 C323,325.4 318.1,341 318.1,341 L318.1,341 Z M309.1,241.8 C309.9,241.4 310.7,241 311.5,240.5 C336.2,263.7 329.2,298.4 329.2,298.4 C329.2,298.4 332.4,263.3 309.1,241.8 L309.1,241.8 Z M335.7,291.6 C333,305.4 323.2,319.3 323.2,319.3 C323.2,319.3 325.3,315.8 327.5,310.2 C330.1,303.7 333,294.5 333,284.9 C333,273.9 331.4,266.3 330.2,262.2 C329.5,259.7 328.9,258.4 328.9,258.4 C328.9,258.4 338.4,277.8 335.7,291.6 L335.7,291.6 Z M339.7,297.4 C339.7,297.4 340.4,280 334.3,263.1 L334.3,263.1 C334.3,263 334.2,262.9 334.2,262.7 C328.6,247.2 318.7,238.6 317.1,237.2 L317.1,237.2 C319,238.5 330.9,246.8 336,260.9 C341.6,276.3 339.7,297.4 339.7,297.4 L339.7,297.4 Z M340.9,309.4 C340.9,309.4 349.4,281 344.6,261.4 C340,242.5 332.2,234.6 331.6,234.1 L331.6,234.1 C331.6,234.1 343.8,244.8 348.1,263.1 C352.4,281.4 340.9,309.4 340.9,309.4 L340.9,309.4 Z M349.8,207.7 C349.8,207.1 349.9,206.3 349.9,205.5 C349.9,204.7 349.9,203.9 350,202.9 C362.7,208.8 367.8,222.6 367.8,222.6 C367.8,222.6 367.7,222.5 367.5,222.2 C366.3,220.6 361.1,214 355.1,210.2 C353.3,209.1 351.5,208.3 349.8,207.7 L349.8,207.7 Z M354.8,230.4 C354.8,230.4 358.3,237.5 364.3,245.9 C365.8,248 367.4,250.1 369.2,252.3 C369.2,252.3 369.2,252.3 369.2,252.4 C374,258.2 379.8,263.8 386.3,267.5 C405,278.2 425.1,296 431.8,318.2 C436.4,333.4 445.8,342.5 451.2,346.7 C453.7,348.6 455.4,349.6 455.4,349.6 C455.4,349.6 448.2,349.7 438.6,340.1 C433.4,334.9 429.3,323.4 421.7,310.6 C421.6,310.4 421.4,310.1 421.3,309.9 C421.6,310.5 421.9,311.1 422.2,311.7 C426.7,321.2 429.2,330.9 430.4,336.3 L430.4,336.3 C431,338.9 431.2,340.4 431.2,340.4 C431.2,340.4 425,320.5 414.2,304.7 C421.2,316.5 423.2,329.4 423.2,329.4 C423.2,329.4 413.7,301.9 397,291.7 C380.3,281.5 373.3,271.4 373.3,271.4 C387.9,284.8 388.9,282 401.7,290.8 C400.6,290 399.5,289.2 398.3,288.5 C378,276.5 366.6,258 366.6,258 C371.1,263.9 375.4,268.1 379.8,271.6 L379.8,271.6 C382.1,273.4 384.4,275.1 386.8,276.7 C393,280.9 399.8,285.1 407.9,292 C403.7,287.4 398.7,283 392.9,278.9 C392.4,278.5 391.9,278.2 391.4,277.8 C363,257.1 354.8,230.4 354.8,230.4 L354.8,230.4 Z M357.5,313.6 C372,288.4 360.3,269.4 360.3,269.4 C369.2,280.7 369.5,297.2 361.6,312.3 C361.3,312.9 361,313.5 360.7,314 C360.3,314.6 360,315.3 359.6,315.9 C349.6,331.9 333.4,368.1 333.4,368.1 C333.4,368.1 343,338.9 357.5,313.6 L357.5,313.6 Z M364,310.3 C374.3,294.5 367.8,279.5 367.8,279.5 C371.6,286.2 375.5,297.5 366.3,311.2 C357.1,324.9 348.1,342.4 348.1,342.4 C348.1,342.4 353.7,326.1 364,310.3 L364,310.3 Z M390.2,385.9 C390.2,385.9 378.3,387.5 366.6,378.8 C362.1,375.5 359.3,371 357.5,366.7 C357.6,367.4 357.8,368.1 357.9,368.9 C364.4,399.6 390.8,402.1 390.8,402.1 C390.8,402.1 377.7,402.7 364.6,389.6 C351.5,376.5 354.5,353.6 354.5,353.6 L354.7,354.5 L355.2,356.6 C363.3,385.7 390.2,385.9 390.2,385.9 L390.2,385.9 Z M399.8,364.6 C421.2,360 432.8,364.7 432.8,364.7 C432.8,364.7 423.3,361.6 399.6,366.4 C403.8,365.8 408,365 412.2,364.4 C419.2,363.4 424.7,364.1 428.6,365.2 C433.5,366.6 435.9,368.5 435.9,368.5 C435.9,368.5 429.9,365.7 420,365.7 C410.1,365.7 405.6,370.9 388.4,370.9 C371.2,370.9 365.3,356.1 365.3,356.1 C369,359.8 372.8,362.4 376.5,364.1 C380.7,366 385,366.8 389.2,366.9 C373.1,365.5 366.8,352 366.8,352 C366.8,352 378.4,369.2 399.8,364.6 L399.8,364.6 Z M389.8,349.4 C389.8,349.4 391.5,339.9 405,339.9 C418.5,339.9 431.2,346.9 431.2,346.9 C431.2,346.9 419.4,341.9 406.1,341.9 C392.8,341.9 389.8,349.4 389.8,349.4 L389.8,349.4 Z" id="Shape"></path>
                <path id="Shape" d="M331.5,340.2 C331.3,341.4 331.3,342 331.3,342 L331.5,340.2 L331.5,340.2 Z"></path>
                <path d="M222.2,266.3 C221.5,257.8 217,254 212.5,254.8 C212.3,254.8 212.1,254.9 212,254.9 C207.3,256.2 206.2,257.8 206.2,257.8 C206.2,257.8 202.2,258.5 201,260 L201,260 C200.8,260.3 200.7,260.5 200.7,260.9 L200.7,260.9 C200.7,269.1 210.2,271 210.2,271 C210.2,271 205.9,267.5 207.6,264.8 C209.3,262.1 212.5,260.7 215.1,266.2 C217.7,271.7 220.4,271.7 220.4,271.7 C220.4,271.7 221.5,273.6 223.1,275.7 C224.1,277.1 225.9,277.9 227,278.3 C227.7,278.6 228.2,278.7 228.2,278.7 C228.2,278.7 228,278.6 227.7,278.4 C226.3,277.6 222.8,274.5 222.2,266.3 L222.2,266.3 Z" id="Shape"></path>
                <path d="M174,285 C171.7,287.4 169.2,290.8 167,295.7 C163.3,303.5 166,305.5 169.4,296.3 C173.9,284.3 180.6,280.1 180.6,280.1 C180.6,280.1 177.6,281.1 174,285 L174,285 Z" id="Shape"></path>
                <path d="M298.5,348.1 C298.9,348.1 299.4,347.7 299.9,347 C302.5,343.3 305.6,330.5 301.9,315.6 C297.5,297.8 283.8,284.4 283.8,284.4 C283.8,284.4 284.8,285.9 286.3,288.4 C288.5,292 291.6,297.8 294.4,304.7 C294.8,305.7 295.2,306.7 295.6,307.7 C294.1,308.9 290.7,310.2 283.2,309.5 C269.4,308.3 254.1,304 254.1,304 C254.1,304 262.6,307.9 273.1,310.6 L273.1,310.6 C274.2,310.9 275.3,311.1 276.5,311.4 C283.3,312.8 290.7,313.5 297.1,312.1 C297.4,313.2 297.7,314.2 298,315.3 C298.1,315.7 298.2,316.1 298.3,316.5 C284.2,319.2 271.5,317.4 259.3,315.4 C252.9,314.4 246.7,313.3 240.4,312.7 L240.4,312.7 C240.2,312.7 239.9,312.7 239.7,312.6 C237.5,312.4 235.3,312.3 233.1,312.3 C230.9,312.3 228.7,312.4 226.6,312.6 C225.2,312.7 223.8,312.8 222.4,313 C207,314.8 193.8,319.4 169.8,316.5 C169.9,315.9 170.1,315.2 170.3,314.6 C170.3,314.5 170.3,314.4 170.4,314.4 C170.6,313.6 170.8,312.9 171,312.1 C188.5,316.1 214.2,304.1 214.2,304.1 C214.2,304.1 206.1,306.3 196.4,308 C192.7,308.6 188.8,309.2 185,309.6 C177.1,310.3 173.8,308.9 172.4,307.6 C174.9,300.6 178,294.5 180.4,290.2 C182.8,286 184.5,283.4 184.5,283.4 C184.5,283.4 170.8,296.9 166.4,314.6 C163.1,328 165.3,339.6 167.6,344.6 C167.6,344.7 167.7,344.8 167.7,344.9 C167.7,344.9 167.7,344.9 167.7,345 C167.8,345.1 167.8,345.3 167.9,345.4 C168,345.6 168.1,345.7 168.2,345.9 C168.7,346.7 169.3,347.2 169.7,347.2 C171,347.2 169.8,342.7 169,336 C169,336 173.8,339.6 182.1,343.8 C193.4,349.6 211.2,356.5 232.2,357 C232.8,357 233.4,357.1 234,357.1 L234.8,357.1 L234.8,357.1 C254.5,357.1 271.4,351.1 283,345.4 C287.3,343.3 290.9,341.2 293.6,339.5 C296.4,337.7 298.4,336.3 299.3,335.6 C298.6,343 297.1,348.1 298.5,348.1 L298.5,348.1 Z M287.5,320.2 C288.2,320.2 289,320.1 289.7,320 L290.3,320 L291.1,320 L291.2,320 L292.1,320 L292.2,320 C292.5,320 292.8,320.1 293.2,320.1 L293.2,320.1 C293.9,320.2 294.6,320.3 295.2,320.6 L295.2,320.6 C295.5,320.7 295.8,320.8 296.1,321 L296.1,321 C296.2,321 296.3,321.1 296.4,321.1 C296.4,321.1 296.4,321.1 296.5,321.2 C296.7,321.4 297,321.8 297.3,322.4 C297.8,323.3 297.9,324.5 296.2,325.2 L296.1,325.2 C295.9,325.3 295.8,325.3 295.7,325.4 C293.9,326.2 291.3,327.2 287.7,328.1 C287.5,326.1 287.1,324.2 286.8,322.8 C286.9,322.4 286.7,320.4 287.5,320.2 L287.5,320.2 Z M272.4,319.8 C272.6,319.8 272.7,319.8 272.9,319.9 L273.1,319.9 L273,319.9 C273.6,320 274.2,320 274.7,320.1 C277.5,320.4 280.3,320.4 282.9,320.4 C283.2,320.4 284.7,320.6 285.4,322.7 C285.6,323.4 285.8,324.1 285.9,324.8 C286,325.5 286.1,326.1 286.2,326.8 C286.3,327.4 286.3,328 286.4,328.6 C282.6,329.5 277.7,330.4 271.5,331.1 C271.5,330.6 271.4,330.1 271.4,329.7 L271.4,329.7 C271.3,328.3 271.1,327.1 271,325.9 L271,325.8 C270.9,325.3 270.8,324.8 270.8,324.4 C270.8,324.3 270.8,324.2 270.7,324.1 C270.6,323.6 270.5,323.2 270.4,322.7 C270,320.1 271.4,319.8 272.4,319.8 L272.4,319.8 Z M255,317.3 C255.8,317.4 256.5,317.5 257.3,317.5 C259.8,317.8 262.2,318.1 264.4,318.4 C264.5,318.4 264.7,318.5 264.9,318.5 C267.5,318.9 268.8,322.6 268.8,322.6 L268.8,322.7 C268.9,323.2 269,323.8 269.1,324.3 C269.1,324.4 269.1,324.6 269.2,324.7 C269.3,325.1 269.3,325.5 269.4,326 L269.4,326.4 C269.4,326.9 269.5,327.3 269.5,327.8 L269.5,328.1 C269.5,328.7 269.6,329.2 269.6,329.8 L269.6,329.8 L269.6,331.2 C265.3,331.7 260.4,332.1 254.8,332.4 C254.8,332 254.8,331.6 254.7,331.1 L254.7,331.1 C254.6,329.7 254.6,328.4 254.5,327.1 C254.5,327.1 254.5,327.1 254.5,327 C254.4,325.9 254.3,324.8 254.2,323.7 C254.2,323.4 254.2,323.2 254.1,322.9 C254.1,322.7 254.1,322.5 254,322.3 C254,321.8 253.9,321.4 253.9,321 C253.9,320.1 253.9,317.6 255,317.3 L255,317.3 Z M234,321 C234,320.1 234.2,316.4 236.3,316.3 C237.4,316.3 238.5,316.3 239.6,316.4 C242.8,316.5 246,316.6 249.1,316.8 C249.9,317.1 252,318.2 252.6,321.2 L252.6,321.2 C252.7,322 252.8,322.7 252.8,323.5 C252.8,323.7 252.8,324 252.9,324.2 C252.9,324.7 253,325.3 253,325.8 L253,326.6 C253,327.1 253,327.7 253.1,328.2 L253.1,328.9 L253.1,331.2 L253.1,332.5 C247.4,332.8 241,332.9 233.8,333 L233.8,331.7 L233.8,321 L234,321 Z M218.9,316.7 C221.7,316.5 224.6,316.4 227.5,316.4 C228.6,316.4 229.6,316.3 230.7,316.3 C231.5,316.6 232.4,317.8 232.4,321.5 L232.4,331.7 L232.4,333 C225.8,333 219.8,332.8 214.5,332.6 L214.5,331.1 L214.5,331.1 L214.5,328.9 L214.5,328.4 C214.5,327.8 214.5,327.2 214.6,326.6 L214.6,325.9 C214.6,325.3 214.7,324.8 214.7,324.2 L214.7,323.5 C214.8,322.7 214.8,322 214.9,321.2 C215.8,317.7 218.6,316.8 218.9,316.7 L218.9,316.7 Z M202.8,318.6 C204.4,318.3 206.1,318 207.9,317.8 C209.4,317.6 210.9,317.4 212.5,317.3 C214.2,317.2 213.9,321 213.9,321.5 L213.9,321.5 C213.9,321.9 213.8,322.4 213.8,322.8 L213.8,323.3 C213.8,323.6 213.7,323.9 213.7,324.3 C213.7,324.7 213.6,325.1 213.6,325.6 L213.6,326.1 C213.6,326.5 213.5,326.8 213.5,327.2 L213.5,327.2 C213.4,328.9 213.3,330.7 213.2,332.5 C207.6,332.2 202.7,331.8 198.4,331.3 C198.4,330.7 198.4,330.1 198.5,329.5 C198.6,328.4 198.6,327.2 198.8,326.1 L198.8,326 C198.9,325.5 198.9,325 199,324.5 L199,324.2 C199.1,323.6 199.2,323.1 199.3,322.5 C199.1,322.4 200.3,319.1 202.8,318.6 L202.8,318.6 Z M184.9,320.4 L187.3,320.4 C188.8,320.4 190.3,320.3 191.8,320.2 C192.7,320.1 193.6,320.1 194.5,320 L194.5,320 L194.5,320 C194.9,320 195.3,319.9 195.7,319.9 C196.6,320 197.7,320.5 197.3,322.8 L197.3,322.8 C197.2,323.2 197.1,323.6 197,324.1 C197,324.2 197,324.3 196.9,324.5 C196.8,324.8 196.8,325.2 196.7,325.6 C196.7,325.7 196.7,325.9 196.6,326 C196.5,326.4 196.5,326.9 196.4,327.3 L196.4,327.5 C196.3,328.1 196.3,328.7 196.2,329.3 L196.2,329.3 C196.2,329.9 196.1,330.5 196.1,331.1 C189.9,330.3 185,329.4 181.3,328.4 C181.4,327.7 181.4,327.1 181.5,326.4 L181.5,326.4 C181.6,325.8 181.7,325.2 181.8,324.7 C181.9,324 182.1,323.4 182.3,322.7 C183.2,320.4 184.9,320.4 184.9,320.4 L184.9,320.4 Z M177.5,320 L177.8,320 L178,320 L178.5,320 L178.6,320 C179,320 179.4,320.1 179.9,320.1 L179.9,320.1 L179.9,320.1 L180.2,320.1 L180.2,320.1 C181.3,320.2 180.9,322.8 180.9,322.8 L180.9,322.8 C180.8,323.2 180.7,323.7 180.6,324.2 L180.6,324.3 C180.4,325.4 180.2,326.6 180,327.9 C176.3,326.8 173.7,325.8 172.1,324.8 L172.1,324.8 C170.9,324.1 170.7,323.2 170.8,322.4 C170.9,321.9 171.1,321.5 171.4,321.1 L171.4,321.1 C171.4,321.1 171.5,321.1 171.5,321 C171.6,320.9 171.8,320.8 171.9,320.8 L172,320.8 C172.1,320.7 172.3,320.7 172.5,320.6 L172.5,320.6 C173.2,320.3 174,320.2 174.7,320.1 L174.8,320.1 C175,320.1 175.1,320.1 175.3,320 L175.5,320 L175.9,320 L176.1,320 L176.5,320 L176.8,320 L177.1,320 L177.4,320 C177.3,320 177.4,320 177.5,320 L177.5,320 Z M180,334.9 C180.2,338.1 177.1,336.7 176.9,336.6 C174.7,334.9 173,333.2 171.7,331.6 C171.6,331.4 171.3,331.1 171,330.6 C170.9,330.4 170.8,330.3 170.7,330.1 C170.6,330 170.6,329.9 170.5,329.8 C170.5,329.7 170.4,329.7 170.4,329.6 C170.3,329.5 170.3,329.4 170.2,329.2 L170.2,329.2 C170.1,329 170.1,328.8 170.1,328.7 C170,327.2 172.4,327.5 172.4,327.5 L172.4,327.5 C174.2,328.2 176.6,329 179.7,329.9 L179.7,331.2 L179.7,331.7 L179.7,331.7 C179.8,332.8 179.9,333.9 180,334.9 L180,334.9 L180,334.9 Z M194.8,346 C194.7,346 194.6,345.9 194.4,345.9 C193.2,345.5 192.1,345 191,344.5 C188.8,343.6 186.8,342.7 185,341.7 C183.4,340.9 182.2,338 182.1,337.8 C182,337.4 181.9,337 181.8,336.5 C181.6,335.2 181.4,333.6 181.3,332 L181.3,330.2 C185.2,331.2 190.1,332.1 196.2,333 L196.2,334 L196.2,334.4 L196.2,334.4 C196.2,337 196.4,339.4 196.6,341.5 L196.6,341.5 C196.7,342.2 196.8,342.8 196.8,343.4 L196.8,343.6 C197.1,346.1 195.7,346.2 194.8,346 L194.8,346 Z M211.5,351.2 C211.2,351.1 210.8,351 210.5,350.9 C207.7,350.1 204.6,349.3 201.3,348.2 C200,347.8 199.4,347 199.1,346.3 C199.1,346 199,345.7 199,345.3 L199,345.1 C199,344.8 198.9,344.5 198.9,344.1 L198.9,343.9 C198.9,343.5 198.8,343.2 198.8,342.8 L198.8,342.6 C198.8,342.2 198.7,341.8 198.7,341.4 L198.7,341.2 C198.7,340.8 198.6,340.3 198.6,339.8 L198.6,339.6 C198.6,339.1 198.5,338.6 198.5,338.1 L198.5,337.9 C198.5,337.4 198.4,336.8 198.4,336.3 L198.4,336.2 C198.4,335.6 198.4,335 198.3,334.4 L198.3,333 C202.6,333.5 207.5,334 213.1,334.4 L213.1,336.1 C213.1,340.8 213.5,345 214,348 C214,351.3 211.6,351.2 211.5,351.2 L211.5,351.2 Z M232.4,349.6 C232.4,354.1 230.2,354.3 229.9,354.3 C229.1,354.3 228.3,354.2 227.5,354.1 C225.1,353.9 222.5,353.6 219.8,353.1 C219.1,353 218.4,352.8 217.7,352.7 C216.1,352.2 215.7,350.3 215.6,349.5 C215.6,349.1 215.5,348.7 215.5,348.3 L215.5,348 C215.5,347.7 215.4,347.3 215.4,346.9 L215.4,346.6 C215.4,346.2 215.3,345.8 215.3,345.4 L215.3,345.1 C215.3,344.6 215.2,344.2 215.2,343.7 L215.2,343.5 C215.2,343 215.1,342.5 215.1,341.9 L215.1,341.7 C215.1,341.1 215,340.6 215,340 L215,339.8 C215,339.2 214.9,338.6 214.9,338 L214.9,337.9 C214.9,337.3 214.8,336.6 214.8,336 C214.8,336 214.8,336 214.8,335.9 L214.8,334.6 C220.2,334.9 226.1,335.1 232.7,335.2 L232.7,336.5 L232.7,349.6 L232.4,349.6 Z M252.3,349.2 C252.3,349.2 252.1,352 250.1,352.7 C250,352.8 249.8,352.8 249.8,352.8 C247.2,353.3 244.9,353.7 242.9,354 L242.7,354 L242.7,354 C241.9,354.1 240.8,354.2 239.5,354.3 C238.8,354.3 238,354.4 237.1,354.4 C234.3,354.5 234.2,350.6 234.2,349.9 L234.2,336.6 L234.2,335.3 C241.2,335.3 247.6,335.2 253.4,334.8 L253.4,336.1 L253.4,336.1 C253.3,340.1 253,343.7 252.7,346.5 L252.7,346.5 C252.7,346.9 252.6,347.4 252.6,347.8 L252.6,347.9 C252.4,348.4 252.3,348.8 252.3,349.2 L252.3,349.2 L252.3,349.2 Z M268.9,345 C268.8,345.5 268.8,345.9 268.7,346.3 C268.5,347 267.9,347.8 266.5,348.3 C266,348.5 265.8,348.6 265.8,348.6 C262.8,349.6 259.9,350.4 257.3,351.1 C256.8,351.2 256.3,351.4 255.9,351.5 L256.3,351.3 C256.3,351.3 253.8,351.5 253.9,348.4 C254.3,345.4 254.8,341.2 254.8,336.4 L254.8,336.1 L254.8,334.8 C260.3,334.4 265.2,334 269.6,333.4 L269.6,334.6 L269.6,334.6 C269.5,338.2 269.3,341.5 269,344 L269,344 C268.9,344.3 268.9,344.6 268.9,345 C268.9,344.9 268.8,344.9 268.9,345 C268.8,344.9 268.9,345 268.9,345 L268.9,345 Z M285.7,337.8 C285.7,337.8 284.4,340.9 282.7,341.8 C282.3,342 282.3,342 282.6,342.1 C280.1,343.4 277.2,344.6 273.9,345.9 L273.8,345.9 C273.7,345.9 273.7,346 273.6,346 L273.9,345.8 L274,345.7 C274,345.7 274,345.7 273.9,345.7 C273.4,345.9 270.7,347 271.1,343.6 C271.1,343.6 271.1,343.6 271.1,343.5 C271.5,340.9 271.8,337.7 271.8,333.9 L271.8,333 C277.7,332.2 282.7,331.2 286.7,330.2 L286.7,331.7 L286.7,331.7 C286.7,333.4 286.5,335 286.2,336.4 C285.9,336.9 285.8,337.3 285.7,337.8 L285.7,337.8 L285.7,337.8 Z M290.3,337.3 L290.9,336.6 C290.9,336.6 290.3,336.9 289.6,337 C288.7,337.1 287.6,336.8 287.7,335 C287.8,333.9 287.9,332.8 287.9,331.5 L287.9,331.4 L287.9,331.2 L287.9,329.9 C291.5,329 294.2,328.1 296.2,327.4 L296.2,327.4 C296.2,327.4 298.3,327.3 297.8,329.1 C297.8,329.2 297.7,329.4 297.6,329.6 L297.6,329.6 C296.9,330.9 296.2,331.8 296.2,331.8 L296.3,331.8 C294.9,333.5 293,335.4 290.3,337.3 L290.3,337.3 Z" id="Shape"></path>
                <path d="M174.5,356.1 C177.3,355.6 180.4,357.5 194.9,366.4 C205.7,373 211.5,374.8 216.7,375.1 L217,375.1 C218.7,375.2 220.4,375.1 222.1,375 C222.7,375 223.4,374.9 224,374.7 C230.2,373.5 235.1,369.2 235.1,369.2 C235.1,369.2 234.9,369.3 234.6,369.4 C233.1,370.1 228.4,372.2 222.9,372.9 C216.3,373.7 207.7,371.5 196.3,364.4 C184.9,357.3 180.1,353.7 174.6,353.7 C174.1,353.7 173.7,353.8 173.3,353.9 C172.1,354.2 171.9,355 172.4,355.6 C172.7,356 173.5,356.3 174.5,356.1 L174.5,356.1 Z" id="Shape"></path>
                <path d="M250.2,266.3 C252.8,260.8 256,262.1 257.7,264.9 C259.4,267.7 255.1,271.1 255.1,271.1 C255.1,271.1 261.2,269.8 263.6,265.1 C264.2,263.9 264.6,262.6 264.6,261 C264.6,258.8 259,257.9 259,257.9 C259,257.9 257.8,256.3 253.2,255 C249.7,254 246.1,255.9 244.2,260.7 C243.6,262.3 243.1,264.2 243,266.4 C242.2,276.7 237.1,278.9 237.1,278.9 C237.1,278.9 240.6,278.1 242.2,275.9 C242.5,275.4 242.9,275 243.2,274.6 C244.3,273.1 244.9,271.9 244.9,271.9 C244.9,271.9 247.6,271.8 250.2,266.3 L250.2,266.3 Z" id="Shape"></path>
                <path d="M226,283.3 C228.4,286.5 230.5,303.4 230.5,303.4 L230.5,303.1 C230.4,300.5 229.6,282.3 227.3,281.6 C226.3,281.3 225.5,280.7 225,280.2 C224.9,280.1 224.8,280 224.8,279.9 C224.2,279.3 224,278.7 224,278.7 C224,278.7 223.6,280.2 226,283.3 L226,283.3 Z" id="Shape"></path>
                <path d="M239.5,283.3 C240.2,282.4 240.7,281.6 241,280.9 C241.7,279.4 241.5,278.7 241.5,278.7 C241.5,278.7 240.6,280.8 238.1,281.6 C237.1,281.9 236.4,285.8 235.9,290.2 L235.9,290.2 C235.5,293.5 235.3,297.1 235.1,299.7 C235,301.9 234.9,303.4 234.9,303.4 C234.9,303.4 237.1,286.5 239.5,283.3 L239.5,283.3 Z" id="Shape"></path>
                <path id="Shape" d="M273.1,319.9 L273.3,319.9 C273.2,320 273.2,320 273.1,319.9 L273.1,319.9 Z"></path>
            </g>
        </g>
    </g>
</svg>