<?xml version="1.0" encoding="UTF-8" standalone="no"?>
<svg width="40px" height="40px" viewBox="0 0 40 40" version="1.1" xmlns="http://www.w3.org/2000/svg" xmlns:xlink="http://www.w3.org/1999/xlink" xmlns:sketch="http://www.bohemiancoding.com/sketch/ns">
    <!-- Generator: Sketch 3.2.2 (9983) - http://www.bohemiancoding.com/sketch -->
    <title>instagram</title>
    <desc>Created with Sketch.</desc>
    <defs></defs>
    <g id="Page-1" stroke="none" stroke-width="1" fill="none" fill-rule="evenodd" sketch:type="MSPage">
        <g id="Instagram" sketch:type="MSArtboardGroup" fill="#FEE18A">
            <g id="instagram" sketch:type="MSLayerGroup">
                <path d="M35.5555556,0 L4.44444444,0 C2,0 0,2 0,4.44444444 L0,35.5555556 C0,38.0022222 2,40 4.44444444,40 L35.5555556,40 C38,40 40,38.0022222 40,35.5555556 L40,4.44444444 C40,2 38,0 35.5555556,0 L35.5555556,0 Z M19.9644444,32.2733333 C26.7622222,32.2733333 32.2711111,26.76 32.2711111,19.9644444 C32.2711111,19.2133333 32.1755556,18.4888889 32.0422222,17.7777778 L35.5555556,17.7777778 L35.5555556,33.8133333 C35.5555556,34.6622222 34.8666667,35.3466667 34.0155556,35.3466667 L5.98444444,35.3466667 C5.13333333,35.3466667 4.44444444,34.6622222 4.44444444,33.8133333 L4.44444444,17.7777778 L7.88666667,17.7777778 C7.75111111,18.4888889 7.65555556,19.2133333 7.65555556,19.9644444 C7.65555556,26.7622222 13.1688889,32.2733333 19.9644444,32.2733333 L19.9644444,32.2733333 Z M12.2733333,19.9644444 C12.2733333,15.7155556 15.7177778,12.2733333 19.9666667,12.2733333 C24.2133333,12.2733333 27.66,15.7155556 27.66,19.9644444 C27.66,24.2133333 24.2133333,27.6577778 19.9666667,27.6577778 C15.7155556,27.6577778 12.2733333,24.2133333 12.2733333,19.9644444 L12.2733333,19.9644444 Z M34.0155556,11.1111111 L30.4266667,11.1111111 C29.5777778,11.1111111 28.8888889,10.4177778 28.8888889,9.57333333 L28.8888889,5.98 C28.8888889,5.13111111 29.5777778,4.44444444 30.4244444,4.44444444 L34.0133333,4.44444444 C34.8666667,4.44444444 35.5555556,5.13111111 35.5555556,5.98 L35.5555556,9.57111111 C35.5555556,10.4177778 34.8666667,11.1111111 34.0155556,11.1111111 L34.0155556,11.1111111 Z" id="Shape" sketch:type="MSShapeGroup"></path>
            </g>
        </g>
    </g>
</svg>