<?xml version="1.0" encoding="UTF-8" standalone="no"?>
<svg width="32px" height="39px" viewBox="0 0 32 39" version="1.1" xmlns="http://www.w3.org/2000/svg" xmlns:xlink="http://www.w3.org/1999/xlink" xmlns:sketch="http://www.bohemiancoding.com/sketch/ns">
    <!-- Generator: Sketch 3.2.2 (9983) - http://www.bohemiancoding.com/sketch -->
    <title>pinterest</title>
    <desc>Created with Sketch.</desc>
    <defs></defs>
    <g id="Page-1" stroke="none" stroke-width="1" fill="none" fill-rule="evenodd" sketch:type="MSPage">
        <g id="Pinterest" sketch:type="MSArtboardGroup" transform="translate(0.000000, -1.000000)" fill="#FEE18A">
            <g id="pinterest" sketch:type="MSLayerGroup">
                <path d="M13.3761476,27.4538619 C12.2943028,32.9617441 10.975933,38.2416311 7.06607193,40.9995721 C5.86082279,32.6757502 8.83692432,26.4258839 10.2211098,19.7900259 C7.86202997,15.9301085 10.5049398,8.16627457 15.4760783,10.0802336 C21.5948772,12.4321833 10.1779182,24.4239267 17.8413283,25.9238946 C25.8441003,27.4858612 29.110202,12.4241835 24.1472905,7.52628827 C16.9795546,0.450439657 3.27961517,7.36029182 4.96614127,17.4900751 C5.37543236,19.9660221 8.00600171,20.7160061 6.01713497,24.1339329 C1.42854995,23.1459541 0.0587616842,19.6260294 0.23564125,14.9341298 C0.519471251,7.25429409 7.32933454,1.88040906 14.161822,1.13442502 C22.8021831,0.192445177 30.9119055,4.220359 32.0328283,12.1221899 C33.2936094,21.043999 28.1332509,30.7077923 18.892322,30.0118072 C16.3872137,29.8218112 15.3382767,28.6138371 13.3761476,27.4538619 L13.3761476,27.4538619 Z" id="Shape" sketch:type="MSShapeGroup"></path>
            </g>
        </g>
    </g>
</svg>