<?xml version="1.0" encoding="UTF-8" standalone="no"?>
<svg width="26px" height="41px" viewBox="0 0 26 41" version="1.1" xmlns="http://www.w3.org/2000/svg" xmlns:xlink="http://www.w3.org/1999/xlink" xmlns:sketch="http://www.bohemiancoding.com/sketch/ns">
    <!-- Generator: Sketch 3.2.2 (9983) - http://www.bohemiancoding.com/sketch -->
    <title>tumblr</title>
    <desc>Created with Sketch.</desc>
    <defs></defs>
    <g id="Page-1" stroke="none" stroke-width="1" fill="none" fill-rule="evenodd" sketch:type="MSPage">
        <g id="Tumblr" sketch:type="MSArtboardGroup" fill="#FEE18A">
            <g id="tumblr" sketch:type="MSLayerGroup">
                <path d="M25.4,38.6173913 C23.665625,39.423913 22.0964286,39.9891304 20.6924107,40.3152174 C19.2861607,40.6369565 17.7660714,40.8 16.1321429,40.8 C14.2772321,40.8 12.6366071,40.5673913 11.2102679,40.1086957 C9.78392857,39.6456522 8.56964286,38.9869565 7.56071429,38.1347826 C6.55401786,37.276087 5.85535714,36.3695652 5.46696429,35.4086957 C5.07857143,34.4456522 4.884375,33.0478261 4.884375,31.2217391 L4.884375,17.1891304 L0.4,17.1891304 L0.4,11.5282609 C1.99375,11.0195652 3.35982143,10.2891304 4.49598214,9.3326087 C5.634375,8.38043478 6.54508929,7.23478261 7.23482143,5.89782609 C7.92232143,4.56521739 8.39330357,2.86304348 8.65446429,0.8 L14.4245536,0.8 L14.4245536,10.9130435 L24.0540179,10.9130435 L24.0540179,17.1891304 L14.4245536,17.1891304 L14.4245536,27.4478261 C14.4245536,29.7652174 14.5495536,31.2565217 14.7995536,31.9152174 C15.0473214,32.573913 15.5116071,33.1 16.1879464,33.4913043 C17.0875,34.0217391 18.1142857,34.2891304 19.2705357,34.2891304 C21.3241071,34.2891304 23.36875,33.6304348 25.4,32.3152174 L25.4,38.6173913 L25.4,38.6173913 Z" id="Shape" sketch:type="MSShapeGroup"></path>
            </g>
        </g>
    </g>
</svg>