<?xml version="1.0" encoding="UTF-8" standalone="no"?>
<svg width="46px" height="38px" viewBox="0 0 46 38" version="1.1" xmlns="http://www.w3.org/2000/svg" xmlns:xlink="http://www.w3.org/1999/xlink" xmlns:sketch="http://www.bohemiancoding.com/sketch/ns">
    <!-- Generator: Sketch 3.2.2 (9983) - http://www.bohemiancoding.com/sketch -->
    <title>twitter</title>
    <desc>Created with Sketch.</desc>
    <defs></defs>
    <g id="Page-1" stroke="none" stroke-width="1" fill="none" fill-rule="evenodd" sketch:type="MSPage">
        <g id="Twitter" sketch:type="MSArtboardGroup" transform="translate(-1.000000, 0.000000)" fill="#FEE18A">
            <g id="twitter" sketch:type="MSLayerGroup">
                <path d="M42.29,9.615 C42.31,10.02 42.3175,10.43 42.3175,10.835 C42.3175,23.31 32.825,37.69 15.4675,37.69 C10.135,37.69 5.1775,36.1275 1,33.4475 C1.74,33.535 2.49,33.58 3.25,33.58 C7.675,33.58 11.7425,32.07 14.97,29.5425 C10.8425,29.465 7.355,26.74 6.155,22.99 C6.73,23.0975 7.3225,23.155 7.93,23.155 C8.7925,23.155 9.6275,23.0425 10.4175,22.8275 C6.1,21.9575 2.8475,18.145 2.8475,13.57 L2.8475,13.4525 C4.12,14.16 5.5775,14.585 7.1225,14.635 C4.59,12.94 2.9225,10.055 2.9225,6.7775 C2.9225,5.05 3.3875,3.4275 4.2025,2.0325 C8.855,7.745 15.8125,11.5 23.655,11.895 C23.495,11.2025 23.4125,10.485 23.4125,9.7425 C23.4125,4.5325 27.635,0.31 32.8475,0.31 C35.5625,0.31 38.015,1.4525 39.7375,3.2875 C41.885,2.8625 43.905,2.0775 45.73,0.9975 C45.025,3.2 43.5275,5.05 41.58,6.2175 C43.49,5.9875 45.305,5.485 47,4.7325 C45.735,6.6275 44.135,8.2875 42.29,9.615 L42.29,9.615 Z" id="Shape" sketch:type="MSShapeGroup"></path>
            </g>
        </g>
    </g>
</svg>